%FSLAX45Y45*%
G04 Gerber Fmt 4.5, Leading zero omitted, Abs format (unit mm)*
G04 Created by KiCad (PCBNEW (2015-01-16 BZR 5376)-product) date 20/06/2015 00:43:48*
%MOMM*%
G01*
G04 APERTURE LIST*
%ADD10C,0.127000*%
%ADD11C,0.100000*%
%ADD12C,0.200000*%
%ADD13C,0.300000*%
G04 APERTURE END LIST*
D10*
D11*
X18300000Y-12000000D02*
X18300000Y-8900000D01*
X11800000Y-12000000D02*
X18300000Y-12000000D01*
X11800000Y-8900000D02*
X11800000Y-12000000D01*
X18300000Y-8900000D02*
X11800000Y-8900000D01*
D12*
X11842750Y-9721850D02*
X11906250Y-9785350D01*
X11906250Y-9721850D02*
X11842750Y-9785350D01*
X11842750Y-10585450D02*
X11906250Y-10648950D01*
X11906250Y-10585450D02*
X11842750Y-10648950D01*
X11842750Y-11906250D02*
X11906250Y-11969750D01*
X11906250Y-11906250D02*
X11842750Y-11969750D01*
X12655550Y-10585450D02*
X12719050Y-10648950D01*
X12719050Y-10585450D02*
X12655550Y-10648950D01*
X13036550Y-11893550D02*
X13100050Y-11957050D01*
X13100050Y-11893550D02*
X13036550Y-11957050D01*
X14319250Y-10356850D02*
X14382750Y-10420350D01*
X14382750Y-10356850D02*
X14319250Y-10420350D01*
X14183106Y-9144000D02*
G75*
G03X14183106Y-9144000I-38100J0D01*
G01*
X14183106Y-10888980D02*
G75*
G03X14183106Y-10888980I-38100J0D01*
G01*
X14383004Y-9144000D02*
G75*
G03X14383004Y-9144000I-38100J0D01*
G01*
X14383004Y-10888980D02*
G75*
G03X14383004Y-10888980I-38100J0D01*
G01*
X14582902Y-9144000D02*
G75*
G03X14582902Y-9144000I-38100J0D01*
G01*
X14582902Y-10888980D02*
G75*
G03X14582902Y-10888980I-38100J0D01*
G01*
X14783054Y-9144000D02*
G75*
G03X14783054Y-9144000I-38100J0D01*
G01*
X14783054Y-10888980D02*
G75*
G03X14783054Y-10888980I-38100J0D01*
G01*
X14982952Y-9144000D02*
G75*
G03X14982952Y-9144000I-38100J0D01*
G01*
X14982952Y-10888980D02*
G75*
G03X14982952Y-10888980I-38100J0D01*
G01*
X15183104Y-9144000D02*
G75*
G03X15183104Y-9144000I-38100J0D01*
G01*
X15183104Y-10888980D02*
G75*
G03X15183104Y-10888980I-38100J0D01*
G01*
X15383002Y-9144000D02*
G75*
G03X15383002Y-9144000I-38100J0D01*
G01*
X15383002Y-10888980D02*
G75*
G03X15383002Y-10888980I-38100J0D01*
G01*
X15582900Y-9144000D02*
G75*
G03X15582900Y-9144000I-38100J0D01*
G01*
X15582900Y-10888980D02*
G75*
G03X15582900Y-10888980I-38100J0D01*
G01*
X12115800Y-11668760D02*
X12115800Y-11750040D01*
X12075160Y-11709400D02*
X12156440Y-11709400D01*
X12166600Y-9306560D02*
X12166600Y-9387840D01*
X12125960Y-9347200D02*
X12207240Y-9347200D01*
X12369800Y-11668760D02*
X12369800Y-11750040D01*
X12329160Y-11709400D02*
X12410440Y-11709400D01*
X12420600Y-9306560D02*
X12420600Y-9387840D01*
X12379960Y-9347200D02*
X12461240Y-9347200D01*
X12437110Y-9697720D02*
X12437110Y-9779000D01*
X12396470Y-9738360D02*
X12477750Y-9738360D01*
X12437110Y-11221720D02*
X12437110Y-11303000D01*
X12396470Y-11262360D02*
X12477750Y-11262360D01*
X12674600Y-9306560D02*
X12674600Y-9387840D01*
X12633960Y-9347200D02*
X12715240Y-9347200D01*
X12691110Y-9697720D02*
X12691110Y-9779000D01*
X12650470Y-9738360D02*
X12731750Y-9738360D01*
X12691110Y-11221720D02*
X12691110Y-11303000D01*
X12650470Y-11262360D02*
X12731750Y-11262360D01*
X12928600Y-9306560D02*
X12928600Y-9387840D01*
X12887960Y-9347200D02*
X12969240Y-9347200D01*
X12945110Y-9697720D02*
X12945110Y-9779000D01*
X12904470Y-9738360D02*
X12985750Y-9738360D01*
X12945110Y-11221720D02*
X12945110Y-11303000D01*
X12904470Y-11262360D02*
X12985750Y-11262360D01*
X13199110Y-9697720D02*
X13199110Y-9779000D01*
X13158470Y-9738360D02*
X13239750Y-9738360D01*
X13199110Y-11221720D02*
X13199110Y-11303000D01*
X13158470Y-11262360D02*
X13239750Y-11262360D01*
X13208000Y-9306560D02*
X13208000Y-9387840D01*
X13167360Y-9347200D02*
X13248640Y-9347200D01*
X13208000Y-11643360D02*
X13208000Y-11724640D01*
X13167360Y-11684000D02*
X13248640Y-11684000D01*
X13453110Y-9697720D02*
X13453110Y-9779000D01*
X13412470Y-9738360D02*
X13493750Y-9738360D01*
X13453110Y-11221720D02*
X13453110Y-11303000D01*
X13412470Y-11262360D02*
X13493750Y-11262360D01*
X13462000Y-9306560D02*
X13462000Y-9387840D01*
X13421360Y-9347200D02*
X13502640Y-9347200D01*
X13462000Y-11643360D02*
X13462000Y-11724640D01*
X13421360Y-11684000D02*
X13502640Y-11684000D01*
X13707110Y-9697720D02*
X13707110Y-9779000D01*
X13666470Y-9738360D02*
X13747750Y-9738360D01*
X13707110Y-11221720D02*
X13707110Y-11303000D01*
X13666470Y-11262360D02*
X13747750Y-11262360D01*
X13716000Y-10068560D02*
X13716000Y-10149840D01*
X13675360Y-10109200D02*
X13756640Y-10109200D01*
X13716000Y-10322560D02*
X13716000Y-10403840D01*
X13675360Y-10363200D02*
X13756640Y-10363200D01*
X13716000Y-10576560D02*
X13716000Y-10657840D01*
X13675360Y-10617200D02*
X13756640Y-10617200D01*
X13716000Y-10830560D02*
X13716000Y-10911840D01*
X13675360Y-10871200D02*
X13756640Y-10871200D01*
X13716000Y-11643360D02*
X13716000Y-11724640D01*
X13675360Y-11684000D02*
X13756640Y-11684000D01*
X13961110Y-9697720D02*
X13961110Y-9779000D01*
X13920470Y-9738360D02*
X14001750Y-9738360D01*
X13961110Y-11221720D02*
X13961110Y-11303000D01*
X13920470Y-11262360D02*
X14001750Y-11262360D01*
X13970000Y-11643360D02*
X13970000Y-11724640D01*
X13929360Y-11684000D02*
X14010640Y-11684000D01*
X14215110Y-9697720D02*
X14215110Y-9779000D01*
X14174470Y-9738360D02*
X14255750Y-9738360D01*
X14215110Y-11221720D02*
X14215110Y-11303000D01*
X14174470Y-11262360D02*
X14255750Y-11262360D01*
X14224000Y-11643360D02*
X14224000Y-11724640D01*
X14183360Y-11684000D02*
X14264640Y-11684000D01*
X14469110Y-9697720D02*
X14469110Y-9779000D01*
X14428470Y-9738360D02*
X14509750Y-9738360D01*
X14469110Y-11221720D02*
X14469110Y-11303000D01*
X14428470Y-11262360D02*
X14509750Y-11262360D01*
X14478000Y-11643360D02*
X14478000Y-11724640D01*
X14437360Y-11684000D02*
X14518640Y-11684000D01*
X14723110Y-9697720D02*
X14723110Y-9779000D01*
X14682470Y-9738360D02*
X14763750Y-9738360D01*
X14723110Y-11221720D02*
X14723110Y-11303000D01*
X14682470Y-11262360D02*
X14763750Y-11262360D01*
X14977110Y-9697720D02*
X14977110Y-9779000D01*
X14936470Y-9738360D02*
X15017750Y-9738360D01*
X14977110Y-11221720D02*
X14977110Y-11303000D01*
X14936470Y-11262360D02*
X15017750Y-11262360D01*
X15231110Y-9697720D02*
X15231110Y-9779000D01*
X15190470Y-9738360D02*
X15271750Y-9738360D01*
X15231110Y-11221720D02*
X15231110Y-11303000D01*
X15190470Y-11262360D02*
X15271750Y-11262360D01*
X15485110Y-9697720D02*
X15485110Y-9779000D01*
X15444470Y-9738360D02*
X15525750Y-9738360D01*
X15485110Y-11221720D02*
X15485110Y-11303000D01*
X15444470Y-11262360D02*
X15525750Y-11262360D01*
X15739110Y-9697720D02*
X15739110Y-9779000D01*
X15698470Y-9738360D02*
X15779750Y-9738360D01*
X15739110Y-11221720D02*
X15739110Y-11303000D01*
X15698470Y-11262360D02*
X15779750Y-11262360D01*
X15748000Y-11630660D02*
X15748000Y-11711940D01*
X15707360Y-11671300D02*
X15788640Y-11671300D01*
X15993110Y-9697720D02*
X15993110Y-9779000D01*
X15952470Y-9738360D02*
X16033750Y-9738360D01*
X15993110Y-11221720D02*
X15993110Y-11303000D01*
X15952470Y-11262360D02*
X16033750Y-11262360D01*
X16002000Y-11630660D02*
X16002000Y-11711940D01*
X15961360Y-11671300D02*
X16042640Y-11671300D01*
X16116300Y-9319260D02*
X16116300Y-9400540D01*
X16075660Y-9359900D02*
X16156940Y-9359900D01*
X16247110Y-9697720D02*
X16247110Y-9779000D01*
X16206470Y-9738360D02*
X16287750Y-9738360D01*
X16247110Y-11221720D02*
X16247110Y-11303000D01*
X16206470Y-11262360D02*
X16287750Y-11262360D01*
X16256000Y-10093960D02*
X16256000Y-10175240D01*
X16215360Y-10134600D02*
X16296640Y-10134600D01*
X16256000Y-10347960D02*
X16256000Y-10429240D01*
X16215360Y-10388600D02*
X16296640Y-10388600D01*
X16256000Y-11630660D02*
X16256000Y-11711940D01*
X16215360Y-11671300D02*
X16296640Y-11671300D01*
X16370300Y-9319260D02*
X16370300Y-9400540D01*
X16329660Y-9359900D02*
X16410940Y-9359900D01*
X16501110Y-9697720D02*
X16501110Y-9779000D01*
X16460470Y-9738360D02*
X16541750Y-9738360D01*
X16501110Y-11221720D02*
X16501110Y-11303000D01*
X16460470Y-11262360D02*
X16541750Y-11262360D01*
X16510000Y-11630660D02*
X16510000Y-11711940D01*
X16469360Y-11671300D02*
X16550640Y-11671300D01*
X16624300Y-9319260D02*
X16624300Y-9400540D01*
X16583660Y-9359900D02*
X16664940Y-9359900D01*
X16755110Y-9697720D02*
X16755110Y-9779000D01*
X16714470Y-9738360D02*
X16795750Y-9738360D01*
X16755110Y-11221720D02*
X16755110Y-11303000D01*
X16714470Y-11262360D02*
X16795750Y-11262360D01*
X16878300Y-9319260D02*
X16878300Y-9400540D01*
X16837660Y-9359900D02*
X16918940Y-9359900D01*
X17009110Y-9697720D02*
X17009110Y-9779000D01*
X16968470Y-9738360D02*
X17049750Y-9738360D01*
X17009110Y-11221720D02*
X17009110Y-11303000D01*
X16968470Y-11262360D02*
X17049750Y-11262360D01*
X17263110Y-9697720D02*
X17263110Y-9779000D01*
X17222470Y-9738360D02*
X17303750Y-9738360D01*
X17263110Y-11221720D02*
X17263110Y-11303000D01*
X17222470Y-11262360D02*
X17303750Y-11262360D01*
X17957800Y-9789160D02*
X17957800Y-9870440D01*
X17917160Y-9829800D02*
X17998440Y-9829800D01*
X17957800Y-10043160D02*
X17957800Y-10124440D01*
X17917160Y-10083800D02*
X17998440Y-10083800D01*
X17957800Y-10297160D02*
X17957800Y-10378440D01*
X17917160Y-10337800D02*
X17998440Y-10337800D01*
X17957800Y-10551160D02*
X17957800Y-10632440D01*
X17917160Y-10591800D02*
X17998440Y-10591800D01*
X17957800Y-10805160D02*
X17957800Y-10886440D01*
X17917160Y-10845800D02*
X17998440Y-10845800D01*
X17957800Y-11059160D02*
X17957800Y-11140440D01*
X17917160Y-11099800D02*
X17998440Y-11099800D01*
X17957800Y-11313160D02*
X17957800Y-11394440D01*
X17917160Y-11353800D02*
X17998440Y-11353800D01*
D13*
X12066428Y-12470714D02*
X12066428Y-12170714D01*
X12137857Y-12170714D01*
X12180714Y-12185000D01*
X12209286Y-12213571D01*
X12223571Y-12242143D01*
X12237857Y-12299286D01*
X12237857Y-12342143D01*
X12223571Y-12399286D01*
X12209286Y-12427857D01*
X12180714Y-12456429D01*
X12137857Y-12470714D01*
X12066428Y-12470714D01*
X12366428Y-12470714D02*
X12366428Y-12270714D01*
X12366428Y-12327857D02*
X12380714Y-12299286D01*
X12395000Y-12285000D01*
X12423571Y-12270714D01*
X12452143Y-12270714D01*
X12552143Y-12470714D02*
X12552143Y-12270714D01*
X12552143Y-12170714D02*
X12537857Y-12185000D01*
X12552143Y-12199286D01*
X12566428Y-12185000D01*
X12552143Y-12170714D01*
X12552143Y-12199286D01*
X12737857Y-12470714D02*
X12709286Y-12456429D01*
X12695000Y-12427857D01*
X12695000Y-12170714D01*
X12895000Y-12470714D02*
X12866428Y-12456429D01*
X12852143Y-12427857D01*
X12852143Y-12170714D01*
X13237857Y-12470714D02*
X13237857Y-12170714D01*
X13337857Y-12385000D01*
X13437857Y-12170714D01*
X13437857Y-12470714D01*
X13709286Y-12470714D02*
X13709286Y-12313571D01*
X13695000Y-12285000D01*
X13666428Y-12270714D01*
X13609286Y-12270714D01*
X13580714Y-12285000D01*
X13709286Y-12456429D02*
X13680714Y-12470714D01*
X13609286Y-12470714D01*
X13580714Y-12456429D01*
X13566428Y-12427857D01*
X13566428Y-12399286D01*
X13580714Y-12370714D01*
X13609286Y-12356429D01*
X13680714Y-12356429D01*
X13709286Y-12342143D01*
X13852143Y-12270714D02*
X13852143Y-12570714D01*
X13852143Y-12285000D02*
X13880714Y-12270714D01*
X13937857Y-12270714D01*
X13966428Y-12285000D01*
X13980714Y-12299286D01*
X13995000Y-12327857D01*
X13995000Y-12413571D01*
X13980714Y-12442143D01*
X13966428Y-12456429D01*
X13937857Y-12470714D01*
X13880714Y-12470714D01*
X13852143Y-12456429D01*
X14123571Y-12442143D02*
X14137857Y-12456429D01*
X14123571Y-12470714D01*
X14109286Y-12456429D01*
X14123571Y-12442143D01*
X14123571Y-12470714D01*
X14123571Y-12285000D02*
X14137857Y-12299286D01*
X14123571Y-12313571D01*
X14109286Y-12299286D01*
X14123571Y-12285000D01*
X14123571Y-12313571D01*
X11731500Y-12933250D02*
X11795000Y-12996750D01*
X11795000Y-12933250D02*
X11731500Y-12996750D01*
X12123571Y-12800714D02*
X12152143Y-12800714D01*
X12180714Y-12815000D01*
X12195000Y-12829286D01*
X12209286Y-12857857D01*
X12223571Y-12915000D01*
X12223571Y-12986429D01*
X12209286Y-13043571D01*
X12195000Y-13072143D01*
X12180714Y-13086429D01*
X12152143Y-13100714D01*
X12123571Y-13100714D01*
X12095000Y-13086429D01*
X12080714Y-13072143D01*
X12066428Y-13043571D01*
X12052143Y-12986429D01*
X12052143Y-12915000D01*
X12066428Y-12857857D01*
X12080714Y-12829286D01*
X12095000Y-12815000D01*
X12123571Y-12800714D01*
X12352143Y-13072143D02*
X12366428Y-13086429D01*
X12352143Y-13100714D01*
X12337857Y-13086429D01*
X12352143Y-13072143D01*
X12352143Y-13100714D01*
X12623571Y-12800714D02*
X12566428Y-12800714D01*
X12537857Y-12815000D01*
X12523571Y-12829286D01*
X12495000Y-12872143D01*
X12480714Y-12929286D01*
X12480714Y-13043571D01*
X12495000Y-13072143D01*
X12509286Y-13086429D01*
X12537857Y-13100714D01*
X12595000Y-13100714D01*
X12623571Y-13086429D01*
X12637857Y-13072143D01*
X12652143Y-13043571D01*
X12652143Y-12972143D01*
X12637857Y-12943571D01*
X12623571Y-12929286D01*
X12595000Y-12915000D01*
X12537857Y-12915000D01*
X12509286Y-12929286D01*
X12495000Y-12943571D01*
X12480714Y-12972143D01*
X12909286Y-12900714D02*
X12909286Y-13100714D01*
X12837857Y-12786429D02*
X12766428Y-13000714D01*
X12952143Y-13000714D01*
X13066428Y-13100714D02*
X13066428Y-12900714D01*
X13066428Y-12929286D02*
X13080714Y-12915000D01*
X13109286Y-12900714D01*
X13152143Y-12900714D01*
X13180714Y-12915000D01*
X13195000Y-12943571D01*
X13195000Y-13100714D01*
X13195000Y-12943571D02*
X13209286Y-12915000D01*
X13237857Y-12900714D01*
X13280714Y-12900714D01*
X13309286Y-12915000D01*
X13323571Y-12943571D01*
X13323571Y-13100714D01*
X13466428Y-13100714D02*
X13466428Y-12900714D01*
X13466428Y-12929286D02*
X13480714Y-12915000D01*
X13509286Y-12900714D01*
X13552143Y-12900714D01*
X13580714Y-12915000D01*
X13595000Y-12943571D01*
X13595000Y-13100714D01*
X13595000Y-12943571D02*
X13609286Y-12915000D01*
X13637857Y-12900714D01*
X13680714Y-12900714D01*
X13709286Y-12915000D01*
X13723571Y-12943571D01*
X13723571Y-13100714D01*
X14309286Y-12786429D02*
X14052143Y-13172143D01*
X14695000Y-12800714D02*
X14723571Y-12800714D01*
X14752143Y-12815000D01*
X14766428Y-12829286D01*
X14780714Y-12857857D01*
X14795000Y-12915000D01*
X14795000Y-12986429D01*
X14780714Y-13043571D01*
X14766428Y-13072143D01*
X14752143Y-13086429D01*
X14723571Y-13100714D01*
X14695000Y-13100714D01*
X14666428Y-13086429D01*
X14652143Y-13072143D01*
X14637857Y-13043571D01*
X14623571Y-12986429D01*
X14623571Y-12915000D01*
X14637857Y-12857857D01*
X14652143Y-12829286D01*
X14666428Y-12815000D01*
X14695000Y-12800714D01*
X14923571Y-13072143D02*
X14937857Y-13086429D01*
X14923571Y-13100714D01*
X14909286Y-13086429D01*
X14923571Y-13072143D01*
X14923571Y-13100714D01*
X15123571Y-12800714D02*
X15152143Y-12800714D01*
X15180714Y-12815000D01*
X15195000Y-12829286D01*
X15209285Y-12857857D01*
X15223571Y-12915000D01*
X15223571Y-12986429D01*
X15209285Y-13043571D01*
X15195000Y-13072143D01*
X15180714Y-13086429D01*
X15152143Y-13100714D01*
X15123571Y-13100714D01*
X15095000Y-13086429D01*
X15080714Y-13072143D01*
X15066428Y-13043571D01*
X15052143Y-12986429D01*
X15052143Y-12915000D01*
X15066428Y-12857857D01*
X15080714Y-12829286D01*
X15095000Y-12815000D01*
X15123571Y-12800714D01*
X15337857Y-12829286D02*
X15352143Y-12815000D01*
X15380714Y-12800714D01*
X15452143Y-12800714D01*
X15480714Y-12815000D01*
X15495000Y-12829286D01*
X15509285Y-12857857D01*
X15509285Y-12886429D01*
X15495000Y-12929286D01*
X15323571Y-13100714D01*
X15509285Y-13100714D01*
X15780714Y-12800714D02*
X15637857Y-12800714D01*
X15623571Y-12943571D01*
X15637857Y-12929286D01*
X15666428Y-12915000D01*
X15737857Y-12915000D01*
X15766428Y-12929286D01*
X15780714Y-12943571D01*
X15795000Y-12972143D01*
X15795000Y-13043571D01*
X15780714Y-13072143D01*
X15766428Y-13086429D01*
X15737857Y-13100714D01*
X15666428Y-13100714D01*
X15637857Y-13086429D01*
X15623571Y-13072143D01*
X15909286Y-12800714D02*
X15909286Y-12857857D01*
X16023571Y-12800714D02*
X16023571Y-12857857D01*
X16466428Y-13215000D02*
X16452143Y-13200714D01*
X16423571Y-13157857D01*
X16409285Y-13129286D01*
X16395000Y-13086429D01*
X16380714Y-13015000D01*
X16380714Y-12957857D01*
X16395000Y-12886429D01*
X16409285Y-12843571D01*
X16423571Y-12815000D01*
X16452143Y-12772143D01*
X16466428Y-12757857D01*
X16709285Y-12800714D02*
X16652143Y-12800714D01*
X16623571Y-12815000D01*
X16609285Y-12829286D01*
X16580714Y-12872143D01*
X16566428Y-12929286D01*
X16566428Y-13043571D01*
X16580714Y-13072143D01*
X16595000Y-13086429D01*
X16623571Y-13100714D01*
X16680714Y-13100714D01*
X16709285Y-13086429D01*
X16723571Y-13072143D01*
X16737857Y-13043571D01*
X16737857Y-12972143D01*
X16723571Y-12943571D01*
X16709285Y-12929286D01*
X16680714Y-12915000D01*
X16623571Y-12915000D01*
X16595000Y-12929286D01*
X16580714Y-12943571D01*
X16566428Y-12972143D01*
X17095000Y-13100714D02*
X17095000Y-12800714D01*
X17223571Y-13100714D02*
X17223571Y-12943571D01*
X17209286Y-12915000D01*
X17180714Y-12900714D01*
X17137857Y-12900714D01*
X17109286Y-12915000D01*
X17095000Y-12929286D01*
X17409286Y-13100714D02*
X17380714Y-13086429D01*
X17366428Y-13072143D01*
X17352143Y-13043571D01*
X17352143Y-12957857D01*
X17366428Y-12929286D01*
X17380714Y-12915000D01*
X17409286Y-12900714D01*
X17452143Y-12900714D01*
X17480714Y-12915000D01*
X17495000Y-12929286D01*
X17509286Y-12957857D01*
X17509286Y-13043571D01*
X17495000Y-13072143D01*
X17480714Y-13086429D01*
X17452143Y-13100714D01*
X17409286Y-13100714D01*
X17680714Y-13100714D02*
X17652143Y-13086429D01*
X17637857Y-13057857D01*
X17637857Y-12800714D01*
X17909286Y-13086429D02*
X17880714Y-13100714D01*
X17823571Y-13100714D01*
X17795000Y-13086429D01*
X17780714Y-13057857D01*
X17780714Y-12943571D01*
X17795000Y-12915000D01*
X17823571Y-12900714D01*
X17880714Y-12900714D01*
X17909286Y-12915000D01*
X17923571Y-12943571D01*
X17923571Y-12972143D01*
X17780714Y-13000714D01*
X18037857Y-13086429D02*
X18066429Y-13100714D01*
X18123571Y-13100714D01*
X18152143Y-13086429D01*
X18166429Y-13057857D01*
X18166429Y-13043571D01*
X18152143Y-13015000D01*
X18123571Y-13000714D01*
X18080714Y-13000714D01*
X18052143Y-12986429D01*
X18037857Y-12957857D01*
X18037857Y-12943571D01*
X18052143Y-12915000D01*
X18080714Y-12900714D01*
X18123571Y-12900714D01*
X18152143Y-12915000D01*
X18266428Y-13215000D02*
X18280714Y-13200714D01*
X18309286Y-13157857D01*
X18323571Y-13129286D01*
X18337857Y-13086429D01*
X18352143Y-13015000D01*
X18352143Y-12957857D01*
X18337857Y-12886429D01*
X18323571Y-12843571D01*
X18309286Y-12815000D01*
X18280714Y-12772143D01*
X18266428Y-12757857D01*
X11795000Y-13361000D02*
G75*
G03X11795000Y-13361000I-38100J0D01*
G01*
X12123571Y-13196714D02*
X12152143Y-13196714D01*
X12180714Y-13211000D01*
X12195000Y-13225286D01*
X12209286Y-13253857D01*
X12223571Y-13311000D01*
X12223571Y-13382429D01*
X12209286Y-13439571D01*
X12195000Y-13468143D01*
X12180714Y-13482429D01*
X12152143Y-13496714D01*
X12123571Y-13496714D01*
X12095000Y-13482429D01*
X12080714Y-13468143D01*
X12066428Y-13439571D01*
X12052143Y-13382429D01*
X12052143Y-13311000D01*
X12066428Y-13253857D01*
X12080714Y-13225286D01*
X12095000Y-13211000D01*
X12123571Y-13196714D01*
X12352143Y-13468143D02*
X12366428Y-13482429D01*
X12352143Y-13496714D01*
X12337857Y-13482429D01*
X12352143Y-13468143D01*
X12352143Y-13496714D01*
X12466428Y-13196714D02*
X12666428Y-13196714D01*
X12537857Y-13496714D01*
X12909286Y-13196714D02*
X12852143Y-13196714D01*
X12823571Y-13211000D01*
X12809286Y-13225286D01*
X12780714Y-13268143D01*
X12766428Y-13325286D01*
X12766428Y-13439571D01*
X12780714Y-13468143D01*
X12795000Y-13482429D01*
X12823571Y-13496714D01*
X12880714Y-13496714D01*
X12909286Y-13482429D01*
X12923571Y-13468143D01*
X12937857Y-13439571D01*
X12937857Y-13368143D01*
X12923571Y-13339571D01*
X12909286Y-13325286D01*
X12880714Y-13311000D01*
X12823571Y-13311000D01*
X12795000Y-13325286D01*
X12780714Y-13339571D01*
X12766428Y-13368143D01*
X13066428Y-13496714D02*
X13066428Y-13296714D01*
X13066428Y-13325286D02*
X13080714Y-13311000D01*
X13109286Y-13296714D01*
X13152143Y-13296714D01*
X13180714Y-13311000D01*
X13195000Y-13339571D01*
X13195000Y-13496714D01*
X13195000Y-13339571D02*
X13209286Y-13311000D01*
X13237857Y-13296714D01*
X13280714Y-13296714D01*
X13309286Y-13311000D01*
X13323571Y-13339571D01*
X13323571Y-13496714D01*
X13466428Y-13496714D02*
X13466428Y-13296714D01*
X13466428Y-13325286D02*
X13480714Y-13311000D01*
X13509286Y-13296714D01*
X13552143Y-13296714D01*
X13580714Y-13311000D01*
X13595000Y-13339571D01*
X13595000Y-13496714D01*
X13595000Y-13339571D02*
X13609286Y-13311000D01*
X13637857Y-13296714D01*
X13680714Y-13296714D01*
X13709286Y-13311000D01*
X13723571Y-13339571D01*
X13723571Y-13496714D01*
X14309286Y-13182429D02*
X14052143Y-13568143D01*
X14695000Y-13196714D02*
X14723571Y-13196714D01*
X14752143Y-13211000D01*
X14766428Y-13225286D01*
X14780714Y-13253857D01*
X14795000Y-13311000D01*
X14795000Y-13382429D01*
X14780714Y-13439571D01*
X14766428Y-13468143D01*
X14752143Y-13482429D01*
X14723571Y-13496714D01*
X14695000Y-13496714D01*
X14666428Y-13482429D01*
X14652143Y-13468143D01*
X14637857Y-13439571D01*
X14623571Y-13382429D01*
X14623571Y-13311000D01*
X14637857Y-13253857D01*
X14652143Y-13225286D01*
X14666428Y-13211000D01*
X14695000Y-13196714D01*
X14923571Y-13468143D02*
X14937857Y-13482429D01*
X14923571Y-13496714D01*
X14909286Y-13482429D01*
X14923571Y-13468143D01*
X14923571Y-13496714D01*
X15123571Y-13196714D02*
X15152143Y-13196714D01*
X15180714Y-13211000D01*
X15195000Y-13225286D01*
X15209285Y-13253857D01*
X15223571Y-13311000D01*
X15223571Y-13382429D01*
X15209285Y-13439571D01*
X15195000Y-13468143D01*
X15180714Y-13482429D01*
X15152143Y-13496714D01*
X15123571Y-13496714D01*
X15095000Y-13482429D01*
X15080714Y-13468143D01*
X15066428Y-13439571D01*
X15052143Y-13382429D01*
X15052143Y-13311000D01*
X15066428Y-13253857D01*
X15080714Y-13225286D01*
X15095000Y-13211000D01*
X15123571Y-13196714D01*
X15323571Y-13196714D02*
X15509285Y-13196714D01*
X15409285Y-13311000D01*
X15452143Y-13311000D01*
X15480714Y-13325286D01*
X15495000Y-13339571D01*
X15509285Y-13368143D01*
X15509285Y-13439571D01*
X15495000Y-13468143D01*
X15480714Y-13482429D01*
X15452143Y-13496714D01*
X15366428Y-13496714D01*
X15337857Y-13482429D01*
X15323571Y-13468143D01*
X15695000Y-13196714D02*
X15723571Y-13196714D01*
X15752143Y-13211000D01*
X15766428Y-13225286D01*
X15780714Y-13253857D01*
X15795000Y-13311000D01*
X15795000Y-13382429D01*
X15780714Y-13439571D01*
X15766428Y-13468143D01*
X15752143Y-13482429D01*
X15723571Y-13496714D01*
X15695000Y-13496714D01*
X15666428Y-13482429D01*
X15652143Y-13468143D01*
X15637857Y-13439571D01*
X15623571Y-13382429D01*
X15623571Y-13311000D01*
X15637857Y-13253857D01*
X15652143Y-13225286D01*
X15666428Y-13211000D01*
X15695000Y-13196714D01*
X15909286Y-13196714D02*
X15909286Y-13253857D01*
X16023571Y-13196714D02*
X16023571Y-13253857D01*
X16466428Y-13611000D02*
X16452143Y-13596714D01*
X16423571Y-13553857D01*
X16409285Y-13525286D01*
X16395000Y-13482429D01*
X16380714Y-13411000D01*
X16380714Y-13353857D01*
X16395000Y-13282429D01*
X16409285Y-13239571D01*
X16423571Y-13211000D01*
X16452143Y-13168143D01*
X16466428Y-13153857D01*
X16737857Y-13496714D02*
X16566428Y-13496714D01*
X16652143Y-13496714D02*
X16652143Y-13196714D01*
X16623571Y-13239571D01*
X16595000Y-13268143D01*
X16566428Y-13282429D01*
X16995000Y-13196714D02*
X16937857Y-13196714D01*
X16909286Y-13211000D01*
X16895000Y-13225286D01*
X16866428Y-13268143D01*
X16852143Y-13325286D01*
X16852143Y-13439571D01*
X16866428Y-13468143D01*
X16880714Y-13482429D01*
X16909286Y-13496714D01*
X16966428Y-13496714D01*
X16995000Y-13482429D01*
X17009286Y-13468143D01*
X17023571Y-13439571D01*
X17023571Y-13368143D01*
X17009286Y-13339571D01*
X16995000Y-13325286D01*
X16966428Y-13311000D01*
X16909286Y-13311000D01*
X16880714Y-13325286D01*
X16866428Y-13339571D01*
X16852143Y-13368143D01*
X17380714Y-13496714D02*
X17380714Y-13196714D01*
X17509286Y-13496714D02*
X17509286Y-13339571D01*
X17495000Y-13311000D01*
X17466428Y-13296714D01*
X17423571Y-13296714D01*
X17395000Y-13311000D01*
X17380714Y-13325286D01*
X17695000Y-13496714D02*
X17666428Y-13482429D01*
X17652143Y-13468143D01*
X17637857Y-13439571D01*
X17637857Y-13353857D01*
X17652143Y-13325286D01*
X17666428Y-13311000D01*
X17695000Y-13296714D01*
X17737857Y-13296714D01*
X17766428Y-13311000D01*
X17780714Y-13325286D01*
X17795000Y-13353857D01*
X17795000Y-13439571D01*
X17780714Y-13468143D01*
X17766428Y-13482429D01*
X17737857Y-13496714D01*
X17695000Y-13496714D01*
X17966428Y-13496714D02*
X17937857Y-13482429D01*
X17923571Y-13453857D01*
X17923571Y-13196714D01*
X18195000Y-13482429D02*
X18166429Y-13496714D01*
X18109286Y-13496714D01*
X18080714Y-13482429D01*
X18066429Y-13453857D01*
X18066429Y-13339571D01*
X18080714Y-13311000D01*
X18109286Y-13296714D01*
X18166429Y-13296714D01*
X18195000Y-13311000D01*
X18209286Y-13339571D01*
X18209286Y-13368143D01*
X18066429Y-13396714D01*
X18323571Y-13482429D02*
X18352143Y-13496714D01*
X18409286Y-13496714D01*
X18437857Y-13482429D01*
X18452143Y-13453857D01*
X18452143Y-13439571D01*
X18437857Y-13411000D01*
X18409286Y-13396714D01*
X18366429Y-13396714D01*
X18337857Y-13382429D01*
X18323571Y-13353857D01*
X18323571Y-13339571D01*
X18337857Y-13311000D01*
X18366429Y-13296714D01*
X18409286Y-13296714D01*
X18437857Y-13311000D01*
X18552143Y-13611000D02*
X18566429Y-13596714D01*
X18595000Y-13553857D01*
X18609286Y-13525286D01*
X18623571Y-13482429D01*
X18637857Y-13411000D01*
X18637857Y-13353857D01*
X18623571Y-13282429D01*
X18609286Y-13239571D01*
X18595000Y-13211000D01*
X18566429Y-13168143D01*
X18552143Y-13153857D01*
X11754360Y-13716360D02*
X11754360Y-13797640D01*
X11713720Y-13757000D02*
X11795000Y-13757000D01*
X12123571Y-13592714D02*
X12152143Y-13592714D01*
X12180714Y-13607000D01*
X12195000Y-13621286D01*
X12209286Y-13649857D01*
X12223571Y-13707000D01*
X12223571Y-13778429D01*
X12209286Y-13835571D01*
X12195000Y-13864143D01*
X12180714Y-13878429D01*
X12152143Y-13892714D01*
X12123571Y-13892714D01*
X12095000Y-13878429D01*
X12080714Y-13864143D01*
X12066428Y-13835571D01*
X12052143Y-13778429D01*
X12052143Y-13707000D01*
X12066428Y-13649857D01*
X12080714Y-13621286D01*
X12095000Y-13607000D01*
X12123571Y-13592714D01*
X12352143Y-13864143D02*
X12366428Y-13878429D01*
X12352143Y-13892714D01*
X12337857Y-13878429D01*
X12352143Y-13864143D01*
X12352143Y-13892714D01*
X12537857Y-13721286D02*
X12509286Y-13707000D01*
X12495000Y-13692714D01*
X12480714Y-13664143D01*
X12480714Y-13649857D01*
X12495000Y-13621286D01*
X12509286Y-13607000D01*
X12537857Y-13592714D01*
X12595000Y-13592714D01*
X12623571Y-13607000D01*
X12637857Y-13621286D01*
X12652143Y-13649857D01*
X12652143Y-13664143D01*
X12637857Y-13692714D01*
X12623571Y-13707000D01*
X12595000Y-13721286D01*
X12537857Y-13721286D01*
X12509286Y-13735571D01*
X12495000Y-13749857D01*
X12480714Y-13778429D01*
X12480714Y-13835571D01*
X12495000Y-13864143D01*
X12509286Y-13878429D01*
X12537857Y-13892714D01*
X12595000Y-13892714D01*
X12623571Y-13878429D01*
X12637857Y-13864143D01*
X12652143Y-13835571D01*
X12652143Y-13778429D01*
X12637857Y-13749857D01*
X12623571Y-13735571D01*
X12595000Y-13721286D01*
X12937857Y-13892714D02*
X12766428Y-13892714D01*
X12852143Y-13892714D02*
X12852143Y-13592714D01*
X12823571Y-13635571D01*
X12795000Y-13664143D01*
X12766428Y-13678429D01*
X13066428Y-13892714D02*
X13066428Y-13692714D01*
X13066428Y-13721286D02*
X13080714Y-13707000D01*
X13109286Y-13692714D01*
X13152143Y-13692714D01*
X13180714Y-13707000D01*
X13195000Y-13735571D01*
X13195000Y-13892714D01*
X13195000Y-13735571D02*
X13209286Y-13707000D01*
X13237857Y-13692714D01*
X13280714Y-13692714D01*
X13309286Y-13707000D01*
X13323571Y-13735571D01*
X13323571Y-13892714D01*
X13466428Y-13892714D02*
X13466428Y-13692714D01*
X13466428Y-13721286D02*
X13480714Y-13707000D01*
X13509286Y-13692714D01*
X13552143Y-13692714D01*
X13580714Y-13707000D01*
X13595000Y-13735571D01*
X13595000Y-13892714D01*
X13595000Y-13735571D02*
X13609286Y-13707000D01*
X13637857Y-13692714D01*
X13680714Y-13692714D01*
X13709286Y-13707000D01*
X13723571Y-13735571D01*
X13723571Y-13892714D01*
X14309286Y-13578429D02*
X14052143Y-13964143D01*
X14695000Y-13592714D02*
X14723571Y-13592714D01*
X14752143Y-13607000D01*
X14766428Y-13621286D01*
X14780714Y-13649857D01*
X14795000Y-13707000D01*
X14795000Y-13778429D01*
X14780714Y-13835571D01*
X14766428Y-13864143D01*
X14752143Y-13878429D01*
X14723571Y-13892714D01*
X14695000Y-13892714D01*
X14666428Y-13878429D01*
X14652143Y-13864143D01*
X14637857Y-13835571D01*
X14623571Y-13778429D01*
X14623571Y-13707000D01*
X14637857Y-13649857D01*
X14652143Y-13621286D01*
X14666428Y-13607000D01*
X14695000Y-13592714D01*
X14923571Y-13864143D02*
X14937857Y-13878429D01*
X14923571Y-13892714D01*
X14909286Y-13878429D01*
X14923571Y-13864143D01*
X14923571Y-13892714D01*
X15123571Y-13592714D02*
X15152143Y-13592714D01*
X15180714Y-13607000D01*
X15195000Y-13621286D01*
X15209285Y-13649857D01*
X15223571Y-13707000D01*
X15223571Y-13778429D01*
X15209285Y-13835571D01*
X15195000Y-13864143D01*
X15180714Y-13878429D01*
X15152143Y-13892714D01*
X15123571Y-13892714D01*
X15095000Y-13878429D01*
X15080714Y-13864143D01*
X15066428Y-13835571D01*
X15052143Y-13778429D01*
X15052143Y-13707000D01*
X15066428Y-13649857D01*
X15080714Y-13621286D01*
X15095000Y-13607000D01*
X15123571Y-13592714D01*
X15323571Y-13592714D02*
X15509285Y-13592714D01*
X15409285Y-13707000D01*
X15452143Y-13707000D01*
X15480714Y-13721286D01*
X15495000Y-13735571D01*
X15509285Y-13764143D01*
X15509285Y-13835571D01*
X15495000Y-13864143D01*
X15480714Y-13878429D01*
X15452143Y-13892714D01*
X15366428Y-13892714D01*
X15337857Y-13878429D01*
X15323571Y-13864143D01*
X15623571Y-13621286D02*
X15637857Y-13607000D01*
X15666428Y-13592714D01*
X15737857Y-13592714D01*
X15766428Y-13607000D01*
X15780714Y-13621286D01*
X15795000Y-13649857D01*
X15795000Y-13678429D01*
X15780714Y-13721286D01*
X15609285Y-13892714D01*
X15795000Y-13892714D01*
X15909286Y-13592714D02*
X15909286Y-13649857D01*
X16023571Y-13592714D02*
X16023571Y-13649857D01*
X16466428Y-14007000D02*
X16452143Y-13992714D01*
X16423571Y-13949857D01*
X16409285Y-13921286D01*
X16395000Y-13878429D01*
X16380714Y-13807000D01*
X16380714Y-13749857D01*
X16395000Y-13678429D01*
X16409285Y-13635571D01*
X16423571Y-13607000D01*
X16452143Y-13564143D01*
X16466428Y-13549857D01*
X16552143Y-13592714D02*
X16752143Y-13592714D01*
X16623571Y-13892714D01*
X17009286Y-13592714D02*
X16866428Y-13592714D01*
X16852143Y-13735571D01*
X16866428Y-13721286D01*
X16895000Y-13707000D01*
X16966428Y-13707000D01*
X16995000Y-13721286D01*
X17009286Y-13735571D01*
X17023571Y-13764143D01*
X17023571Y-13835571D01*
X17009286Y-13864143D01*
X16995000Y-13878429D01*
X16966428Y-13892714D01*
X16895000Y-13892714D01*
X16866428Y-13878429D01*
X16852143Y-13864143D01*
X17380714Y-13892714D02*
X17380714Y-13592714D01*
X17509286Y-13892714D02*
X17509286Y-13735571D01*
X17495000Y-13707000D01*
X17466428Y-13692714D01*
X17423571Y-13692714D01*
X17395000Y-13707000D01*
X17380714Y-13721286D01*
X17695000Y-13892714D02*
X17666428Y-13878429D01*
X17652143Y-13864143D01*
X17637857Y-13835571D01*
X17637857Y-13749857D01*
X17652143Y-13721286D01*
X17666428Y-13707000D01*
X17695000Y-13692714D01*
X17737857Y-13692714D01*
X17766428Y-13707000D01*
X17780714Y-13721286D01*
X17795000Y-13749857D01*
X17795000Y-13835571D01*
X17780714Y-13864143D01*
X17766428Y-13878429D01*
X17737857Y-13892714D01*
X17695000Y-13892714D01*
X17966428Y-13892714D02*
X17937857Y-13878429D01*
X17923571Y-13849857D01*
X17923571Y-13592714D01*
X18195000Y-13878429D02*
X18166429Y-13892714D01*
X18109286Y-13892714D01*
X18080714Y-13878429D01*
X18066429Y-13849857D01*
X18066429Y-13735571D01*
X18080714Y-13707000D01*
X18109286Y-13692714D01*
X18166429Y-13692714D01*
X18195000Y-13707000D01*
X18209286Y-13735571D01*
X18209286Y-13764143D01*
X18066429Y-13792714D01*
X18323571Y-13878429D02*
X18352143Y-13892714D01*
X18409286Y-13892714D01*
X18437857Y-13878429D01*
X18452143Y-13849857D01*
X18452143Y-13835571D01*
X18437857Y-13807000D01*
X18409286Y-13792714D01*
X18366429Y-13792714D01*
X18337857Y-13778429D01*
X18323571Y-13749857D01*
X18323571Y-13735571D01*
X18337857Y-13707000D01*
X18366429Y-13692714D01*
X18409286Y-13692714D01*
X18437857Y-13707000D01*
X18552143Y-14007000D02*
X18566429Y-13992714D01*
X18595000Y-13949857D01*
X18609286Y-13921286D01*
X18623571Y-13878429D01*
X18637857Y-13807000D01*
X18637857Y-13749857D01*
X18623571Y-13678429D01*
X18609286Y-13635571D01*
X18595000Y-13607000D01*
X18566429Y-13564143D01*
X18552143Y-13549857D01*
M02*
