G04 #@! TF.FileFunction,Legend,Top*
%FSLAX46Y46*%
G04 Gerber Fmt 4.6, Leading zero omitted, Abs format (unit mm)*
G04 Created by KiCad (PCBNEW (2015-01-16 BZR 5376)-product) date 20/06/2015 16:12:35*
%MOMM*%
G01*
G04 APERTURE LIST*
%ADD10C,0.100000*%
%ADD11C,0.304800*%
%ADD12C,0.381000*%
%ADD13C,0.127000*%
%ADD14C,0.271780*%
%ADD15C,0.002540*%
%ADD16C,0.285750*%
%ADD17C,0.119380*%
%ADD18C,0.030480*%
%ADD19C,0.254000*%
%ADD20C,0.222250*%
%ADD21C,0.269240*%
%ADD22R,1.800200X1.800200*%
%ADD23C,1.899260*%
%ADD24R,1.597000X2.486000*%
%ADD25O,1.597000X2.486000*%
%ADD26R,2.003400X1.800200*%
%ADD27R,1.701140X1.701140*%
%ADD28R,1.470000X2.232000*%
%ADD29O,1.470000X2.232000*%
%ADD30C,1.398880*%
G04 APERTURE END LIST*
D10*
D11*
X135890000Y-109982000D02*
X135890000Y-109982000D01*
X138430000Y-109982000D02*
X135890000Y-109982000D01*
X135890000Y-109982000D02*
X135890000Y-109982000D01*
X135890000Y-109982000D02*
X135890000Y-99822000D01*
X135890000Y-99822000D02*
X138430000Y-99822000D01*
X138430000Y-99822000D02*
X138430000Y-109982000D01*
X138430000Y-107442000D02*
X135890000Y-107442000D01*
X170053000Y-94869000D02*
X170053000Y-94869000D01*
X170053000Y-92329000D02*
X170053000Y-94869000D01*
X170053000Y-94869000D02*
X170053000Y-94869000D01*
X170053000Y-94869000D02*
X159893000Y-94869000D01*
X159893000Y-94869000D02*
X159893000Y-92329000D01*
X159893000Y-92329000D02*
X170053000Y-92329000D01*
X167513000Y-92329000D02*
X167513000Y-94869000D01*
X166370000Y-117983000D02*
X166370000Y-117983000D01*
X166370000Y-115443000D02*
X166370000Y-117983000D01*
X166370000Y-117983000D02*
X166370000Y-117983000D01*
X166370000Y-117983000D02*
X156210000Y-117983000D01*
X156210000Y-117983000D02*
X156210000Y-115443000D01*
X156210000Y-115443000D02*
X166370000Y-115443000D01*
X163830000Y-115443000D02*
X163830000Y-117983000D01*
D12*
X121831100Y-103733600D02*
X123101100Y-103733600D01*
X123101100Y-103733600D02*
X123101100Y-106273600D01*
X123101100Y-106273600D02*
X121831100Y-106273600D01*
X121831100Y-98653600D02*
X175171100Y-98653600D01*
X175171100Y-98653600D02*
X175171100Y-111353600D01*
X175171100Y-111353600D02*
X121831100Y-111353600D01*
X121831100Y-111353600D02*
X121831100Y-98653600D01*
D13*
X138607800Y-92329000D02*
X136982200Y-92329000D01*
X136982200Y-94615000D02*
X138607800Y-94615000D01*
X136982200Y-95072200D02*
X138607800Y-95072200D01*
X138607800Y-95072200D02*
X138607800Y-91871800D01*
X138607800Y-91871800D02*
X136982200Y-91871800D01*
X136982200Y-91871800D02*
X136982200Y-95072200D01*
D11*
X119888000Y-118364000D02*
X119888000Y-115824000D01*
X119888000Y-115824000D02*
X124968000Y-115824000D01*
X124968000Y-115824000D02*
X124968000Y-118364000D01*
X124968000Y-118364000D02*
X119888000Y-118364000D01*
X146050000Y-115570000D02*
X146050000Y-118110000D01*
X146050000Y-118110000D02*
X130810000Y-118110000D01*
X130810000Y-118110000D02*
X130810000Y-115570000D01*
X130810000Y-115570000D02*
X146050000Y-115570000D01*
X143510000Y-115570000D02*
X143510000Y-118110000D01*
D13*
X126187200Y-116967000D02*
X127812800Y-116967000D01*
X127812800Y-114681000D02*
X126187200Y-114681000D01*
X127812800Y-114223800D02*
X126187200Y-114223800D01*
X126187200Y-114223800D02*
X126187200Y-117424200D01*
X126187200Y-117424200D02*
X127812800Y-117424200D01*
X127812800Y-117424200D02*
X127812800Y-114223800D01*
D11*
X178308000Y-114808000D02*
X178308000Y-114808000D01*
X178308000Y-114808000D02*
X178308000Y-97028000D01*
X178308000Y-97028000D02*
X180848000Y-97028000D01*
X180848000Y-97028000D02*
X180848000Y-114808000D01*
X180848000Y-114808000D02*
X178308000Y-114808000D01*
X180848000Y-112268000D02*
X180848000Y-112268000D01*
X180848000Y-112268000D02*
X178308000Y-112268000D01*
X130810000Y-94742000D02*
X130810000Y-92202000D01*
X130810000Y-92202000D02*
X135890000Y-92202000D01*
X135890000Y-92202000D02*
X135890000Y-94742000D01*
X135890000Y-94742000D02*
X130810000Y-94742000D01*
X120396000Y-92202000D02*
X120396000Y-92202000D01*
X120396000Y-94742000D02*
X120396000Y-92202000D01*
X120396000Y-92202000D02*
X120396000Y-92202000D01*
X120396000Y-92202000D02*
X130556000Y-92202000D01*
X130556000Y-92202000D02*
X130556000Y-94742000D01*
X130556000Y-94742000D02*
X120396000Y-94742000D01*
X122936000Y-94742000D02*
X122936000Y-92202000D01*
X157988000Y-88900000D02*
X138910060Y-88900000D01*
X138910060Y-88900000D02*
X138910060Y-111429800D01*
X138910060Y-111429800D02*
X157988000Y-111429800D01*
X157988000Y-111429800D02*
X157988000Y-88900000D01*
D12*
X120532026Y-106172000D02*
G75*
G03X120532026Y-106172000I-898026J0D01*
G01*
D11*
X154940000Y-115570000D02*
X154940000Y-118110000D01*
X154940000Y-118110000D02*
X147320000Y-118110000D01*
X147320000Y-118110000D02*
X147320000Y-115570000D01*
X147320000Y-115570000D02*
X154940000Y-115570000D01*
X152400000Y-118110000D02*
X152400000Y-115570000D01*
X164465000Y-105664000D02*
X161925000Y-105664000D01*
X161925000Y-105664000D02*
X161925000Y-100584000D01*
X161925000Y-100584000D02*
X164465000Y-100584000D01*
X164465000Y-100584000D02*
X164465000Y-105664000D01*
D12*
X144217526Y-104330500D02*
G75*
G03X144217526Y-104330500I-898026J0D01*
G01*
X119897026Y-118999000D02*
G75*
G03X119897026Y-118999000I-898026J0D01*
G01*
X120468526Y-97536000D02*
G75*
G03X120468526Y-97536000I-898026J0D01*
G01*
X127898026Y-106108500D02*
G75*
G03X127898026Y-106108500I-898026J0D01*
G01*
D14*
X127838563Y-105730584D02*
X127993866Y-105813195D01*
X128045634Y-105895805D01*
X128097402Y-106061026D01*
X128097402Y-106308858D01*
X128045634Y-106474079D01*
X127993866Y-106556689D01*
X127890331Y-106639300D01*
X127476190Y-106639300D01*
X127476190Y-104904480D01*
X127838563Y-104904480D01*
X127942099Y-104987090D01*
X127993866Y-105069700D01*
X128045634Y-105234921D01*
X128045634Y-105400142D01*
X127993866Y-105565363D01*
X127942099Y-105647974D01*
X127838563Y-105730584D01*
X127476190Y-105730584D01*
X128511542Y-106143637D02*
X129029219Y-106143637D01*
X128408007Y-106639300D02*
X128770381Y-104904480D01*
X129132754Y-106639300D01*
X130116339Y-106639300D02*
X129753965Y-105813195D01*
X129495127Y-106639300D02*
X129495127Y-104904480D01*
X129909268Y-104904480D01*
X130012803Y-104987090D01*
X130064571Y-105069700D01*
X130116339Y-105234921D01*
X130116339Y-105482753D01*
X130064571Y-105647974D01*
X130012803Y-105730584D01*
X129909268Y-105813195D01*
X129495127Y-105813195D01*
X130789318Y-104904480D02*
X130996388Y-104904480D01*
X131099923Y-104987090D01*
X131203459Y-105152311D01*
X131255226Y-105482753D01*
X131255226Y-106061026D01*
X131203459Y-106391468D01*
X131099923Y-106556689D01*
X130996388Y-106639300D01*
X130789318Y-106639300D01*
X130685782Y-106556689D01*
X130582247Y-106391468D01*
X130530479Y-106061026D01*
X130530479Y-105482753D01*
X130582247Y-105152311D01*
X130685782Y-104987090D01*
X130789318Y-104904480D01*
X132290579Y-106639300D02*
X131669367Y-106639300D01*
X131979973Y-106639300D02*
X131979973Y-104904480D01*
X131876438Y-105152311D01*
X131772903Y-105317532D01*
X131669367Y-105400142D01*
D11*
D15*
X134610929Y-105210428D02*
X134616976Y-105192285D01*
X134623024Y-105186237D01*
X134635119Y-105180189D01*
X134653262Y-105180189D01*
X134665357Y-105186237D01*
X134671405Y-105192285D01*
X134677452Y-105204380D01*
X134677452Y-105252761D01*
X134550452Y-105252761D01*
X134550452Y-105210428D01*
X134556500Y-105198332D01*
X134562548Y-105192285D01*
X134574643Y-105186237D01*
X134586738Y-105186237D01*
X134598833Y-105192285D01*
X134604881Y-105198332D01*
X134610929Y-105210428D01*
X134610929Y-105252761D01*
X134677452Y-105125761D02*
X134550452Y-105125761D01*
X134641167Y-105083428D01*
X134550452Y-105041094D01*
X134677452Y-105041094D01*
X134677452Y-104980618D02*
X134550452Y-104980618D01*
X134550452Y-104932237D01*
X134556500Y-104920142D01*
X134562548Y-104914094D01*
X134574643Y-104908046D01*
X134592786Y-104908046D01*
X134604881Y-104914094D01*
X134610929Y-104920142D01*
X134616976Y-104932237D01*
X134616976Y-104980618D01*
X134677452Y-104787094D02*
X134677452Y-104859666D01*
X134677452Y-104823380D02*
X134550452Y-104823380D01*
X134568595Y-104835475D01*
X134580690Y-104847570D01*
X134586738Y-104859666D01*
X134604881Y-104714523D02*
X134598833Y-104726618D01*
X134592786Y-104732666D01*
X134580690Y-104738714D01*
X134574643Y-104738714D01*
X134562548Y-104732666D01*
X134556500Y-104726618D01*
X134550452Y-104714523D01*
X134550452Y-104690333D01*
X134556500Y-104678237D01*
X134562548Y-104672190D01*
X134574643Y-104666142D01*
X134580690Y-104666142D01*
X134592786Y-104672190D01*
X134598833Y-104678237D01*
X134604881Y-104690333D01*
X134604881Y-104714523D01*
X134610929Y-104726618D01*
X134616976Y-104732666D01*
X134629071Y-104738714D01*
X134653262Y-104738714D01*
X134665357Y-104732666D01*
X134671405Y-104726618D01*
X134677452Y-104714523D01*
X134677452Y-104690333D01*
X134671405Y-104678237D01*
X134665357Y-104672190D01*
X134653262Y-104666142D01*
X134629071Y-104666142D01*
X134616976Y-104672190D01*
X134610929Y-104678237D01*
X134604881Y-104690333D01*
X134550452Y-104587523D02*
X134550452Y-104575428D01*
X134556500Y-104563333D01*
X134562548Y-104557285D01*
X134574643Y-104551238D01*
X134598833Y-104545190D01*
X134629071Y-104545190D01*
X134653262Y-104551238D01*
X134665357Y-104557285D01*
X134671405Y-104563333D01*
X134677452Y-104575428D01*
X134677452Y-104587523D01*
X134671405Y-104599619D01*
X134665357Y-104605666D01*
X134653262Y-104611714D01*
X134629071Y-104617762D01*
X134598833Y-104617762D01*
X134574643Y-104611714D01*
X134562548Y-104605666D01*
X134556500Y-104599619D01*
X134550452Y-104587523D01*
D14*
X171272926Y-94345579D02*
X171221158Y-94428189D01*
X171065855Y-94510800D01*
X170962320Y-94510800D01*
X170807017Y-94428189D01*
X170703482Y-94262968D01*
X170651714Y-94097747D01*
X170599946Y-93767305D01*
X170599946Y-93519474D01*
X170651714Y-93189032D01*
X170703482Y-93023811D01*
X170807017Y-92858590D01*
X170962320Y-92775980D01*
X171065855Y-92775980D01*
X171221158Y-92858590D01*
X171272926Y-92941200D01*
X171945905Y-92775980D02*
X172152975Y-92775980D01*
X172256510Y-92858590D01*
X172360046Y-93023811D01*
X172411813Y-93354253D01*
X172411813Y-93932526D01*
X172360046Y-94262968D01*
X172256510Y-94428189D01*
X172152975Y-94510800D01*
X171945905Y-94510800D01*
X171842369Y-94428189D01*
X171738834Y-94262968D01*
X171687066Y-93932526D01*
X171687066Y-93354253D01*
X171738834Y-93023811D01*
X171842369Y-92858590D01*
X171945905Y-92775980D01*
X172877722Y-94510800D02*
X172877722Y-92775980D01*
X173498934Y-94510800D01*
X173498934Y-92775980D01*
X174586054Y-94510800D02*
X173964842Y-94510800D01*
X174275448Y-94510800D02*
X174275448Y-92775980D01*
X174171913Y-93023811D01*
X174068378Y-93189032D01*
X173964842Y-93271642D01*
D11*
D15*
X164640381Y-96184357D02*
X164634333Y-96190405D01*
X164616190Y-96196452D01*
X164604095Y-96196452D01*
X164585952Y-96190405D01*
X164573857Y-96178310D01*
X164567809Y-96166214D01*
X164561761Y-96142024D01*
X164561761Y-96123881D01*
X164567809Y-96099690D01*
X164573857Y-96087595D01*
X164585952Y-96075500D01*
X164604095Y-96069452D01*
X164616190Y-96069452D01*
X164634333Y-96075500D01*
X164640381Y-96081548D01*
X164719000Y-96069452D02*
X164743190Y-96069452D01*
X164755285Y-96075500D01*
X164767381Y-96087595D01*
X164773428Y-96111786D01*
X164773428Y-96154119D01*
X164767381Y-96178310D01*
X164755285Y-96190405D01*
X164743190Y-96196452D01*
X164719000Y-96196452D01*
X164706904Y-96190405D01*
X164694809Y-96178310D01*
X164688761Y-96154119D01*
X164688761Y-96111786D01*
X164694809Y-96087595D01*
X164706904Y-96075500D01*
X164719000Y-96069452D01*
X164827857Y-96196452D02*
X164827857Y-96069452D01*
X164900429Y-96196452D01*
X164900429Y-96069452D01*
X164954857Y-96190405D02*
X164973000Y-96196452D01*
X165003238Y-96196452D01*
X165015334Y-96190405D01*
X165021381Y-96184357D01*
X165027429Y-96172262D01*
X165027429Y-96160167D01*
X165021381Y-96148071D01*
X165015334Y-96142024D01*
X165003238Y-96135976D01*
X164979048Y-96129929D01*
X164966953Y-96123881D01*
X164960905Y-96117833D01*
X164954857Y-96105738D01*
X164954857Y-96093643D01*
X164960905Y-96081548D01*
X164966953Y-96075500D01*
X164979048Y-96069452D01*
X165009286Y-96069452D01*
X165027429Y-96075500D01*
X165172571Y-96063405D02*
X165063714Y-96226690D01*
X165257238Y-96129929D02*
X165275381Y-96135976D01*
X165281429Y-96142024D01*
X165287477Y-96154119D01*
X165287477Y-96172262D01*
X165281429Y-96184357D01*
X165275381Y-96190405D01*
X165263286Y-96196452D01*
X165214905Y-96196452D01*
X165214905Y-96069452D01*
X165257238Y-96069452D01*
X165269334Y-96075500D01*
X165275381Y-96081548D01*
X165281429Y-96093643D01*
X165281429Y-96105738D01*
X165275381Y-96117833D01*
X165269334Y-96123881D01*
X165257238Y-96129929D01*
X165214905Y-96129929D01*
X165323762Y-96069452D02*
X165396334Y-96069452D01*
X165360048Y-96196452D02*
X165360048Y-96069452D01*
D14*
X160350926Y-119618579D02*
X160299158Y-119701189D01*
X160143855Y-119783800D01*
X160040320Y-119783800D01*
X159885017Y-119701189D01*
X159781482Y-119535968D01*
X159729714Y-119370747D01*
X159677946Y-119040305D01*
X159677946Y-118792474D01*
X159729714Y-118462032D01*
X159781482Y-118296811D01*
X159885017Y-118131590D01*
X160040320Y-118048980D01*
X160143855Y-118048980D01*
X160299158Y-118131590D01*
X160350926Y-118214200D01*
X161023905Y-118048980D02*
X161230975Y-118048980D01*
X161334510Y-118131590D01*
X161438046Y-118296811D01*
X161489813Y-118627253D01*
X161489813Y-119205526D01*
X161438046Y-119535968D01*
X161334510Y-119701189D01*
X161230975Y-119783800D01*
X161023905Y-119783800D01*
X160920369Y-119701189D01*
X160816834Y-119535968D01*
X160765066Y-119205526D01*
X160765066Y-118627253D01*
X160816834Y-118296811D01*
X160920369Y-118131590D01*
X161023905Y-118048980D01*
X161955722Y-119783800D02*
X161955722Y-118048980D01*
X162576934Y-119783800D01*
X162576934Y-118048980D01*
X162991075Y-118048980D02*
X163664054Y-118048980D01*
X163301681Y-118709863D01*
X163456983Y-118709863D01*
X163560519Y-118792474D01*
X163612286Y-118875084D01*
X163664054Y-119040305D01*
X163664054Y-119453358D01*
X163612286Y-119618579D01*
X163560519Y-119701189D01*
X163456983Y-119783800D01*
X163146378Y-119783800D01*
X163042842Y-119701189D01*
X162991075Y-119618579D01*
D11*
D15*
X160957381Y-119298357D02*
X160951333Y-119304405D01*
X160933190Y-119310452D01*
X160921095Y-119310452D01*
X160902952Y-119304405D01*
X160890857Y-119292310D01*
X160884809Y-119280214D01*
X160878761Y-119256024D01*
X160878761Y-119237881D01*
X160884809Y-119213690D01*
X160890857Y-119201595D01*
X160902952Y-119189500D01*
X160921095Y-119183452D01*
X160933190Y-119183452D01*
X160951333Y-119189500D01*
X160957381Y-119195548D01*
X161036000Y-119183452D02*
X161060190Y-119183452D01*
X161072285Y-119189500D01*
X161084381Y-119201595D01*
X161090428Y-119225786D01*
X161090428Y-119268119D01*
X161084381Y-119292310D01*
X161072285Y-119304405D01*
X161060190Y-119310452D01*
X161036000Y-119310452D01*
X161023904Y-119304405D01*
X161011809Y-119292310D01*
X161005761Y-119268119D01*
X161005761Y-119225786D01*
X161011809Y-119201595D01*
X161023904Y-119189500D01*
X161036000Y-119183452D01*
X161144857Y-119310452D02*
X161144857Y-119183452D01*
X161217429Y-119310452D01*
X161217429Y-119183452D01*
X161271857Y-119304405D02*
X161290000Y-119310452D01*
X161320238Y-119310452D01*
X161332334Y-119304405D01*
X161338381Y-119298357D01*
X161344429Y-119286262D01*
X161344429Y-119274167D01*
X161338381Y-119262071D01*
X161332334Y-119256024D01*
X161320238Y-119249976D01*
X161296048Y-119243929D01*
X161283953Y-119237881D01*
X161277905Y-119231833D01*
X161271857Y-119219738D01*
X161271857Y-119207643D01*
X161277905Y-119195548D01*
X161283953Y-119189500D01*
X161296048Y-119183452D01*
X161326286Y-119183452D01*
X161344429Y-119189500D01*
X161489571Y-119177405D02*
X161380714Y-119340690D01*
X161574238Y-119243929D02*
X161592381Y-119249976D01*
X161598429Y-119256024D01*
X161604477Y-119268119D01*
X161604477Y-119286262D01*
X161598429Y-119298357D01*
X161592381Y-119304405D01*
X161580286Y-119310452D01*
X161531905Y-119310452D01*
X161531905Y-119183452D01*
X161574238Y-119183452D01*
X161586334Y-119189500D01*
X161592381Y-119195548D01*
X161598429Y-119207643D01*
X161598429Y-119219738D01*
X161592381Y-119231833D01*
X161586334Y-119237881D01*
X161574238Y-119243929D01*
X161531905Y-119243929D01*
X161640762Y-119183452D02*
X161713334Y-119183452D01*
X161677048Y-119310452D02*
X161677048Y-119183452D01*
D16*
X143165286Y-103505000D02*
X143110857Y-103589667D01*
X142947571Y-103674333D01*
X142838714Y-103674333D01*
X142675429Y-103589667D01*
X142566571Y-103420333D01*
X142512143Y-103251000D01*
X142457714Y-102912333D01*
X142457714Y-102658333D01*
X142512143Y-102319667D01*
X142566571Y-102150333D01*
X142675429Y-101981000D01*
X142838714Y-101896333D01*
X142947571Y-101896333D01*
X143110857Y-101981000D01*
X143165286Y-102065667D01*
X143655143Y-103674333D02*
X143655143Y-101896333D01*
X144090571Y-101896333D01*
X144199429Y-101981000D01*
X144253857Y-102065667D01*
X144308286Y-102235000D01*
X144308286Y-102489000D01*
X144253857Y-102658333D01*
X144199429Y-102743000D01*
X144090571Y-102827667D01*
X143655143Y-102827667D01*
X144798143Y-101896333D02*
X144798143Y-103335667D01*
X144852571Y-103505000D01*
X144907000Y-103589667D01*
X145015857Y-103674333D01*
X145233571Y-103674333D01*
X145342429Y-103589667D01*
X145396857Y-103505000D01*
X145451286Y-103335667D01*
X145451286Y-101896333D01*
X146594286Y-103674333D02*
X145941143Y-103674333D01*
X146267715Y-103674333D02*
X146267715Y-101896333D01*
X146158858Y-102150333D01*
X146050000Y-102319667D01*
X145941143Y-102404333D01*
D11*
X142578667Y-106383667D02*
X142832667Y-106468333D01*
X143256000Y-106468333D01*
X143425333Y-106383667D01*
X143510000Y-106299000D01*
X143594667Y-106129667D01*
X143594667Y-105960333D01*
X143510000Y-105791000D01*
X143425333Y-105706333D01*
X143256000Y-105621667D01*
X142917333Y-105537000D01*
X142748000Y-105452333D01*
X142663333Y-105367667D01*
X142578667Y-105198333D01*
X142578667Y-105029000D01*
X142663333Y-104859667D01*
X142748000Y-104775000D01*
X142917333Y-104690333D01*
X143340667Y-104690333D01*
X143594667Y-104775000D01*
X144102666Y-104690333D02*
X145118666Y-104690333D01*
X144610666Y-106468333D02*
X144610666Y-104690333D01*
X145711333Y-106468333D02*
X145711333Y-104690333D01*
X146304000Y-105960333D01*
X146896667Y-104690333D01*
X146896667Y-106468333D01*
X147574000Y-104690333D02*
X148674667Y-104690333D01*
X148082000Y-105367667D01*
X148336000Y-105367667D01*
X148505333Y-105452333D01*
X148590000Y-105537000D01*
X148674667Y-105706333D01*
X148674667Y-106129667D01*
X148590000Y-106299000D01*
X148505333Y-106383667D01*
X148336000Y-106468333D01*
X147828000Y-106468333D01*
X147658667Y-106383667D01*
X147574000Y-106299000D01*
X149352000Y-104859667D02*
X149436666Y-104775000D01*
X149606000Y-104690333D01*
X150029333Y-104690333D01*
X150198666Y-104775000D01*
X150283333Y-104859667D01*
X150368000Y-105029000D01*
X150368000Y-105198333D01*
X150283333Y-105452333D01*
X149267333Y-106468333D01*
X150368000Y-106468333D01*
X151722666Y-105537000D02*
X151129999Y-105537000D01*
X151129999Y-106468333D02*
X151129999Y-104690333D01*
X151976666Y-104690333D01*
X153585333Y-106468333D02*
X152569333Y-106468333D01*
X153077333Y-106468333D02*
X153077333Y-104690333D01*
X152907999Y-104944333D01*
X152738666Y-105113667D01*
X152569333Y-105198333D01*
X154685999Y-104690333D02*
X154855332Y-104690333D01*
X155024666Y-104775000D01*
X155109332Y-104859667D01*
X155193999Y-105029000D01*
X155278666Y-105367667D01*
X155278666Y-105791000D01*
X155193999Y-106129667D01*
X155109332Y-106299000D01*
X155024666Y-106383667D01*
X154855332Y-106468333D01*
X154685999Y-106468333D01*
X154516666Y-106383667D01*
X154431999Y-106299000D01*
X154347332Y-106129667D01*
X154262666Y-105791000D01*
X154262666Y-105367667D01*
X154347332Y-105029000D01*
X154431999Y-104859667D01*
X154516666Y-104775000D01*
X154685999Y-104690333D01*
X155871332Y-104690333D02*
X156971999Y-104690333D01*
X156379332Y-105367667D01*
X156633332Y-105367667D01*
X156802665Y-105452333D01*
X156887332Y-105537000D01*
X156971999Y-105706333D01*
X156971999Y-106129667D01*
X156887332Y-106299000D01*
X156802665Y-106383667D01*
X156633332Y-106468333D01*
X156125332Y-106468333D01*
X155955999Y-106383667D01*
X155871332Y-106299000D01*
X158749998Y-106299000D02*
X158665332Y-106383667D01*
X158411332Y-106468333D01*
X158241998Y-106468333D01*
X157987998Y-106383667D01*
X157818665Y-106214333D01*
X157733998Y-106045000D01*
X157649332Y-105706333D01*
X157649332Y-105452333D01*
X157733998Y-105113667D01*
X157818665Y-104944333D01*
X157987998Y-104775000D01*
X158241998Y-104690333D01*
X158411332Y-104690333D01*
X158665332Y-104775000D01*
X158749998Y-104859667D01*
X159765998Y-105452333D02*
X159596665Y-105367667D01*
X159511998Y-105283000D01*
X159427332Y-105113667D01*
X159427332Y-105029000D01*
X159511998Y-104859667D01*
X159596665Y-104775000D01*
X159765998Y-104690333D01*
X160104665Y-104690333D01*
X160273998Y-104775000D01*
X160358665Y-104859667D01*
X160443332Y-105029000D01*
X160443332Y-105113667D01*
X160358665Y-105283000D01*
X160273998Y-105367667D01*
X160104665Y-105452333D01*
X159765998Y-105452333D01*
X159596665Y-105537000D01*
X159511998Y-105621667D01*
X159427332Y-105791000D01*
X159427332Y-106129667D01*
X159511998Y-106299000D01*
X159596665Y-106383667D01*
X159765998Y-106468333D01*
X160104665Y-106468333D01*
X160273998Y-106383667D01*
X160358665Y-106299000D01*
X160443332Y-106129667D01*
X160443332Y-105791000D01*
X160358665Y-105621667D01*
X160273998Y-105537000D01*
X160104665Y-105452333D01*
X160951331Y-104690333D02*
X161967331Y-104690333D01*
X161459331Y-106468333D02*
X161459331Y-104690333D01*
X163321998Y-104690333D02*
X162983332Y-104690333D01*
X162813998Y-104775000D01*
X162729332Y-104859667D01*
X162559998Y-105113667D01*
X162475332Y-105452333D01*
X162475332Y-106129667D01*
X162559998Y-106299000D01*
X162644665Y-106383667D01*
X162813998Y-106468333D01*
X163152665Y-106468333D01*
X163321998Y-106383667D01*
X163406665Y-106299000D01*
X163491332Y-106129667D01*
X163491332Y-105706333D01*
X163406665Y-105537000D01*
X163321998Y-105452333D01*
X163152665Y-105367667D01*
X162813998Y-105367667D01*
X162644665Y-105452333D01*
X162559998Y-105537000D01*
X162475332Y-105706333D01*
X163829998Y-106637667D02*
X165184665Y-106637667D01*
X165607998Y-106468333D02*
X165607998Y-104690333D01*
X165607998Y-105367667D02*
X165777332Y-105283000D01*
X166115998Y-105283000D01*
X166285332Y-105367667D01*
X166369998Y-105452333D01*
X166454665Y-105621667D01*
X166454665Y-106129667D01*
X166369998Y-106299000D01*
X166285332Y-106383667D01*
X166115998Y-106468333D01*
X165777332Y-106468333D01*
X165607998Y-106383667D01*
X167470665Y-106468333D02*
X167301332Y-106383667D01*
X167216665Y-106299000D01*
X167131999Y-106129667D01*
X167131999Y-105621667D01*
X167216665Y-105452333D01*
X167301332Y-105367667D01*
X167470665Y-105283000D01*
X167724665Y-105283000D01*
X167893999Y-105367667D01*
X167978665Y-105452333D01*
X168063332Y-105621667D01*
X168063332Y-106129667D01*
X167978665Y-106299000D01*
X167893999Y-106383667D01*
X167724665Y-106468333D01*
X167470665Y-106468333D01*
X169587332Y-106468333D02*
X169587332Y-105537000D01*
X169502666Y-105367667D01*
X169333332Y-105283000D01*
X168994666Y-105283000D01*
X168825332Y-105367667D01*
X169587332Y-106383667D02*
X169417999Y-106468333D01*
X168994666Y-106468333D01*
X168825332Y-106383667D01*
X168740666Y-106214333D01*
X168740666Y-106045000D01*
X168825332Y-105875667D01*
X168994666Y-105791000D01*
X169417999Y-105791000D01*
X169587332Y-105706333D01*
X170433999Y-106468333D02*
X170433999Y-105283000D01*
X170433999Y-105621667D02*
X170518666Y-105452333D01*
X170603333Y-105367667D01*
X170772666Y-105283000D01*
X170941999Y-105283000D01*
X172296666Y-106468333D02*
X172296666Y-104690333D01*
X172296666Y-106383667D02*
X172127333Y-106468333D01*
X171788666Y-106468333D01*
X171619333Y-106383667D01*
X171534666Y-106299000D01*
X171450000Y-106129667D01*
X171450000Y-105621667D01*
X171534666Y-105452333D01*
X171619333Y-105367667D01*
X171788666Y-105283000D01*
X172127333Y-105283000D01*
X172296666Y-105367667D01*
D17*
X136678307Y-94185256D02*
X136702135Y-94209084D01*
X136725962Y-94280567D01*
X136725962Y-94328222D01*
X136702135Y-94399705D01*
X136654480Y-94447360D01*
X136606824Y-94471188D01*
X136511514Y-94495016D01*
X136440031Y-94495016D01*
X136344720Y-94471188D01*
X136297065Y-94447360D01*
X136249410Y-94399705D01*
X136225582Y-94328222D01*
X136225582Y-94280567D01*
X136249410Y-94209084D01*
X136273238Y-94185256D01*
X136702135Y-93994636D02*
X136725962Y-93946980D01*
X136725962Y-93851670D01*
X136702135Y-93804015D01*
X136654480Y-93780187D01*
X136630652Y-93780187D01*
X136582997Y-93804015D01*
X136559169Y-93851670D01*
X136559169Y-93923153D01*
X136535341Y-93970808D01*
X136487686Y-93994636D01*
X136463859Y-93994636D01*
X136416203Y-93970808D01*
X136392376Y-93923153D01*
X136392376Y-93851670D01*
X136416203Y-93804015D01*
X136392376Y-93351289D02*
X136725962Y-93351289D01*
X136392376Y-93565738D02*
X136654480Y-93565738D01*
X136702135Y-93541910D01*
X136725962Y-93494255D01*
X136725962Y-93422772D01*
X136702135Y-93375117D01*
X136678307Y-93351289D01*
X136392376Y-93113013D02*
X136892756Y-93113013D01*
X136416203Y-93113013D02*
X136392376Y-93065358D01*
X136392376Y-92970047D01*
X136416203Y-92922392D01*
X136440031Y-92898564D01*
X136487686Y-92874737D01*
X136630652Y-92874737D01*
X136678307Y-92898564D01*
X136702135Y-92922392D01*
X136725962Y-92970047D01*
X136725962Y-93065358D01*
X136702135Y-93113013D01*
X136392376Y-92445839D02*
X136725962Y-92445839D01*
X136201755Y-92564977D02*
X136559169Y-92684116D01*
X136559169Y-92374356D01*
X139291362Y-94246397D02*
X139291362Y-94532329D01*
X139291362Y-94389363D02*
X138790982Y-94389363D01*
X138862465Y-94437018D01*
X138910120Y-94484673D01*
X138933948Y-94532329D01*
X138790982Y-93936638D02*
X138790982Y-93888983D01*
X138814810Y-93841328D01*
X138838638Y-93817500D01*
X138886293Y-93793673D01*
X138981603Y-93769845D01*
X139100741Y-93769845D01*
X139196052Y-93793673D01*
X139243707Y-93817500D01*
X139267535Y-93841328D01*
X139291362Y-93888983D01*
X139291362Y-93936638D01*
X139267535Y-93984294D01*
X139243707Y-94008121D01*
X139196052Y-94031949D01*
X139100741Y-94055777D01*
X138981603Y-94055777D01*
X138886293Y-94031949D01*
X138838638Y-94008121D01*
X138814810Y-93984294D01*
X138790982Y-93936638D01*
X138790982Y-93460086D02*
X138790982Y-93412431D01*
X138814810Y-93364776D01*
X138838638Y-93340948D01*
X138886293Y-93317121D01*
X138981603Y-93293293D01*
X139100741Y-93293293D01*
X139196052Y-93317121D01*
X139243707Y-93340948D01*
X139267535Y-93364776D01*
X139291362Y-93412431D01*
X139291362Y-93460086D01*
X139267535Y-93507742D01*
X139243707Y-93531569D01*
X139196052Y-93555397D01*
X139100741Y-93579225D01*
X138981603Y-93579225D01*
X138886293Y-93555397D01*
X138838638Y-93531569D01*
X138814810Y-93507742D01*
X138790982Y-93460086D01*
X138957776Y-93078845D02*
X139291362Y-93078845D01*
X139005431Y-93078845D02*
X138981603Y-93055017D01*
X138957776Y-93007362D01*
X138957776Y-92935879D01*
X138981603Y-92888224D01*
X139029259Y-92864396D01*
X139291362Y-92864396D01*
X139029259Y-92459327D02*
X139029259Y-92626120D01*
X139291362Y-92626120D02*
X138790982Y-92626120D01*
X138790982Y-92387844D01*
D14*
X120072574Y-115336501D02*
X120072574Y-113606761D01*
X120331412Y-113606761D01*
X120486715Y-113689130D01*
X120590250Y-113853867D01*
X120642018Y-114018604D01*
X120693786Y-114348079D01*
X120693786Y-114595184D01*
X120642018Y-114924659D01*
X120590250Y-115089396D01*
X120486715Y-115254133D01*
X120331412Y-115336501D01*
X120072574Y-115336501D01*
X121107926Y-115254133D02*
X121211462Y-115336501D01*
X121418532Y-115336501D01*
X121522067Y-115254133D01*
X121573835Y-115089396D01*
X121573835Y-115007027D01*
X121522067Y-114842290D01*
X121418532Y-114759921D01*
X121263229Y-114759921D01*
X121159694Y-114677553D01*
X121107926Y-114512816D01*
X121107926Y-114430447D01*
X121159694Y-114265710D01*
X121263229Y-114183341D01*
X121418532Y-114183341D01*
X121522067Y-114265710D01*
X121884441Y-114183341D02*
X122298582Y-114183341D01*
X122039744Y-113606761D02*
X122039744Y-115089396D01*
X122091512Y-115254133D01*
X122195047Y-115336501D01*
X122298582Y-115336501D01*
X123126864Y-115336501D02*
X123126864Y-114430447D01*
X123075096Y-114265710D01*
X122971561Y-114183341D01*
X122764490Y-114183341D01*
X122660955Y-114265710D01*
X123126864Y-115254133D02*
X123023328Y-115336501D01*
X122764490Y-115336501D01*
X122660955Y-115254133D01*
X122609187Y-115089396D01*
X122609187Y-114924659D01*
X122660955Y-114759921D01*
X122764490Y-114677553D01*
X123023328Y-114677553D01*
X123126864Y-114595184D01*
X123489237Y-114183341D02*
X123903378Y-114183341D01*
X123644540Y-113606761D02*
X123644540Y-115089396D01*
X123696308Y-115254133D01*
X123799843Y-115336501D01*
X123903378Y-115336501D01*
X124835195Y-115336501D02*
X124213983Y-115336501D01*
X124524589Y-115336501D02*
X124524589Y-113606761D01*
X124421054Y-113853867D01*
X124317519Y-114018604D01*
X124213983Y-114100973D01*
D11*
D18*
X122346357Y-114611452D02*
X122285881Y-114611452D01*
X122285881Y-114484452D01*
X122388691Y-114544929D02*
X122431024Y-114544929D01*
X122449167Y-114611452D02*
X122388691Y-114611452D01*
X122388691Y-114484452D01*
X122449167Y-114484452D01*
X122503596Y-114611452D02*
X122503596Y-114484452D01*
X122533834Y-114484452D01*
X122551977Y-114490500D01*
X122564072Y-114502595D01*
X122570120Y-114514690D01*
X122576168Y-114538881D01*
X122576168Y-114557024D01*
X122570120Y-114581214D01*
X122564072Y-114593310D01*
X122551977Y-114605405D01*
X122533834Y-114611452D01*
X122503596Y-114611452D01*
D14*
X139548810Y-118134130D02*
X139445275Y-118051761D01*
X139289972Y-118051761D01*
X139134669Y-118134130D01*
X139031134Y-118298867D01*
X138979366Y-118463604D01*
X138927598Y-118793079D01*
X138927598Y-119040184D01*
X138979366Y-119369659D01*
X139031134Y-119534396D01*
X139134669Y-119699133D01*
X139289972Y-119781501D01*
X139393507Y-119781501D01*
X139548810Y-119699133D01*
X139600578Y-119616764D01*
X139600578Y-119040184D01*
X139393507Y-119040184D01*
X140066486Y-119781501D02*
X140066486Y-118051761D01*
X140480627Y-118051761D01*
X140584162Y-118134130D01*
X140635930Y-118216499D01*
X140687698Y-118381236D01*
X140687698Y-118628341D01*
X140635930Y-118793079D01*
X140584162Y-118875447D01*
X140480627Y-118957816D01*
X140066486Y-118957816D01*
X141101838Y-119699133D02*
X141257141Y-119781501D01*
X141515979Y-119781501D01*
X141619515Y-119699133D01*
X141671282Y-119616764D01*
X141723050Y-119452027D01*
X141723050Y-119287290D01*
X141671282Y-119122553D01*
X141619515Y-119040184D01*
X141515979Y-118957816D01*
X141308909Y-118875447D01*
X141205374Y-118793079D01*
X141153606Y-118710710D01*
X141101838Y-118545973D01*
X141101838Y-118381236D01*
X141153606Y-118216499D01*
X141205374Y-118134130D01*
X141308909Y-118051761D01*
X141567747Y-118051761D01*
X141723050Y-118134130D01*
X142758402Y-119781501D02*
X142137190Y-119781501D01*
X142447796Y-119781501D02*
X142447796Y-118051761D01*
X142344261Y-118298867D01*
X142240726Y-118463604D01*
X142137190Y-118545973D01*
D11*
D19*
X135599715Y-118545429D02*
X135938382Y-120069429D01*
X136277048Y-118545429D01*
X136615715Y-120069429D02*
X136615715Y-118545429D01*
X137196286Y-120069429D02*
X136760858Y-119198571D01*
X137196286Y-118545429D02*
X136615715Y-119416286D01*
X138163905Y-120069429D02*
X137583334Y-120069429D01*
X137873620Y-120069429D02*
X137873620Y-118545429D01*
X137776858Y-118763143D01*
X137680096Y-118908286D01*
X137583334Y-118980857D01*
X139034762Y-118545429D02*
X138841239Y-118545429D01*
X138744477Y-118618000D01*
X138696096Y-118690571D01*
X138599334Y-118908286D01*
X138550953Y-119198571D01*
X138550953Y-119779143D01*
X138599334Y-119924286D01*
X138647715Y-119996857D01*
X138744477Y-120069429D01*
X138938000Y-120069429D01*
X139034762Y-119996857D01*
X139083143Y-119924286D01*
X139131524Y-119779143D01*
X139131524Y-119416286D01*
X139083143Y-119271143D01*
X139034762Y-119198571D01*
X138938000Y-119126000D01*
X138744477Y-119126000D01*
X138647715Y-119198571D01*
X138599334Y-119271143D01*
X138550953Y-119416286D01*
X139566953Y-118545429D02*
X139566953Y-119779143D01*
X139615334Y-119924286D01*
X139663715Y-119996857D01*
X139760477Y-120069429D01*
X139954000Y-120069429D01*
X140050762Y-119996857D01*
X140099143Y-119924286D01*
X140147524Y-119779143D01*
X140147524Y-118545429D01*
X141066762Y-118545429D02*
X140873239Y-118545429D01*
X140776477Y-118618000D01*
X140728096Y-118690571D01*
X140631334Y-118908286D01*
X140582953Y-119198571D01*
X140582953Y-119779143D01*
X140631334Y-119924286D01*
X140679715Y-119996857D01*
X140776477Y-120069429D01*
X140970000Y-120069429D01*
X141066762Y-119996857D01*
X141115143Y-119924286D01*
X141163524Y-119779143D01*
X141163524Y-119416286D01*
X141115143Y-119271143D01*
X141066762Y-119198571D01*
X140970000Y-119126000D01*
X140776477Y-119126000D01*
X140679715Y-119198571D01*
X140631334Y-119271143D01*
X140582953Y-119416286D01*
D11*
D17*
X128521762Y-116504659D02*
X128283486Y-116671453D01*
X128521762Y-116790591D02*
X128021382Y-116790591D01*
X128021382Y-116599970D01*
X128045210Y-116552315D01*
X128069038Y-116528487D01*
X128116693Y-116504659D01*
X128188176Y-116504659D01*
X128235831Y-116528487D01*
X128259659Y-116552315D01*
X128283486Y-116599970D01*
X128283486Y-116790591D01*
X128521762Y-116218728D02*
X128497935Y-116266383D01*
X128450280Y-116290211D01*
X128021382Y-116290211D01*
X128497935Y-115837486D02*
X128521762Y-115885141D01*
X128521762Y-115980452D01*
X128497935Y-116028107D01*
X128450280Y-116051935D01*
X128259659Y-116051935D01*
X128212003Y-116028107D01*
X128188176Y-115980452D01*
X128188176Y-115885141D01*
X128212003Y-115837486D01*
X128259659Y-115813658D01*
X128307314Y-115813658D01*
X128354969Y-116051935D01*
X128521762Y-115384761D02*
X128021382Y-115384761D01*
X128497935Y-115384761D02*
X128521762Y-115432417D01*
X128521762Y-115527727D01*
X128497935Y-115575382D01*
X128474107Y-115599210D01*
X128426452Y-115623038D01*
X128283486Y-115623038D01*
X128235831Y-115599210D01*
X128212003Y-115575382D01*
X128188176Y-115527727D01*
X128188176Y-115432417D01*
X128212003Y-115384761D01*
X128521762Y-114884381D02*
X128521762Y-115170313D01*
X128521762Y-115027347D02*
X128021382Y-115027347D01*
X128092865Y-115075002D01*
X128140520Y-115122657D01*
X128164348Y-115170313D01*
X125455982Y-116181414D02*
X125455982Y-116419690D01*
X125694259Y-116443518D01*
X125670431Y-116419690D01*
X125646603Y-116372035D01*
X125646603Y-116252897D01*
X125670431Y-116205241D01*
X125694259Y-116181414D01*
X125741914Y-116157586D01*
X125861052Y-116157586D01*
X125908707Y-116181414D01*
X125932535Y-116205241D01*
X125956362Y-116252897D01*
X125956362Y-116372035D01*
X125932535Y-116419690D01*
X125908707Y-116443518D01*
X125455982Y-115847827D02*
X125455982Y-115800172D01*
X125479810Y-115752517D01*
X125503638Y-115728689D01*
X125551293Y-115704862D01*
X125646603Y-115681034D01*
X125765741Y-115681034D01*
X125861052Y-115704862D01*
X125908707Y-115728689D01*
X125932535Y-115752517D01*
X125956362Y-115800172D01*
X125956362Y-115847827D01*
X125932535Y-115895483D01*
X125908707Y-115919310D01*
X125861052Y-115943138D01*
X125765741Y-115966966D01*
X125646603Y-115966966D01*
X125551293Y-115943138D01*
X125503638Y-115919310D01*
X125479810Y-115895483D01*
X125455982Y-115847827D01*
X125455982Y-115371275D02*
X125455982Y-115323620D01*
X125479810Y-115275965D01*
X125503638Y-115252137D01*
X125551293Y-115228310D01*
X125646603Y-115204482D01*
X125765741Y-115204482D01*
X125861052Y-115228310D01*
X125908707Y-115252137D01*
X125932535Y-115275965D01*
X125956362Y-115323620D01*
X125956362Y-115371275D01*
X125932535Y-115418931D01*
X125908707Y-115442758D01*
X125861052Y-115466586D01*
X125765741Y-115490414D01*
X125646603Y-115490414D01*
X125551293Y-115466586D01*
X125503638Y-115442758D01*
X125479810Y-115418931D01*
X125455982Y-115371275D01*
D14*
X177738133Y-107289842D02*
X177820501Y-107134539D01*
X177820501Y-106875701D01*
X177738133Y-106772165D01*
X177655764Y-106720398D01*
X177491027Y-106668630D01*
X177326290Y-106668630D01*
X177161553Y-106720398D01*
X177079184Y-106772165D01*
X176996816Y-106875701D01*
X176914447Y-107082771D01*
X176832079Y-107186306D01*
X176749710Y-107238074D01*
X176584973Y-107289842D01*
X176420236Y-107289842D01*
X176255499Y-107238074D01*
X176173130Y-107186306D01*
X176090761Y-107082771D01*
X176090761Y-106823933D01*
X176173130Y-106668630D01*
X177820501Y-106202722D02*
X176090761Y-106202722D01*
X176090761Y-105943884D01*
X176173130Y-105788581D01*
X176337867Y-105685046D01*
X176502604Y-105633278D01*
X176832079Y-105581510D01*
X177079184Y-105581510D01*
X177408659Y-105633278D01*
X177573396Y-105685046D01*
X177738133Y-105788581D01*
X177820501Y-105943884D01*
X177820501Y-106202722D01*
X177820501Y-104546158D02*
X177820501Y-105167370D01*
X177820501Y-104856764D02*
X176090761Y-104856764D01*
X176337867Y-104960299D01*
X176502604Y-105063834D01*
X176584973Y-105167370D01*
D11*
D19*
X177727429Y-108796666D02*
X176711429Y-108796666D01*
X176856571Y-108796666D02*
X176784000Y-108748285D01*
X176711429Y-108651523D01*
X176711429Y-108506381D01*
X176784000Y-108409619D01*
X176929143Y-108361238D01*
X177727429Y-108361238D01*
X176929143Y-108361238D02*
X176784000Y-108312857D01*
X176711429Y-108216095D01*
X176711429Y-108070952D01*
X176784000Y-107974190D01*
X176929143Y-107925809D01*
X177727429Y-107925809D01*
X177727429Y-107441999D02*
X176711429Y-107441999D01*
X176203429Y-107441999D02*
X176276000Y-107490380D01*
X176348571Y-107441999D01*
X176276000Y-107393618D01*
X176203429Y-107441999D01*
X176348571Y-107441999D01*
X177654857Y-106522761D02*
X177727429Y-106619523D01*
X177727429Y-106813046D01*
X177654857Y-106909808D01*
X177582286Y-106958189D01*
X177437143Y-107006570D01*
X177001714Y-107006570D01*
X176856571Y-106958189D01*
X176784000Y-106909808D01*
X176711429Y-106813046D01*
X176711429Y-106619523D01*
X176784000Y-106522761D01*
X177727429Y-106087332D02*
X176711429Y-106087332D01*
X177001714Y-106087332D02*
X176856571Y-106038951D01*
X176784000Y-105990570D01*
X176711429Y-105893808D01*
X176711429Y-105797047D01*
X177727429Y-105313237D02*
X177654857Y-105409999D01*
X177582286Y-105458380D01*
X177437143Y-105506761D01*
X177001714Y-105506761D01*
X176856571Y-105458380D01*
X176784000Y-105409999D01*
X176711429Y-105313237D01*
X176711429Y-105168095D01*
X176784000Y-105071333D01*
X176856571Y-105022952D01*
X177001714Y-104974571D01*
X177437143Y-104974571D01*
X177582286Y-105022952D01*
X177654857Y-105071333D01*
X177727429Y-105168095D01*
X177727429Y-105313237D01*
X177654857Y-104587523D02*
X177727429Y-104442380D01*
X177727429Y-104200476D01*
X177654857Y-104103714D01*
X177582286Y-104055333D01*
X177437143Y-104006952D01*
X177292000Y-104006952D01*
X177146857Y-104055333D01*
X177074286Y-104103714D01*
X177001714Y-104200476D01*
X176929143Y-104393999D01*
X176856571Y-104490761D01*
X176784000Y-104539142D01*
X176638857Y-104587523D01*
X176493714Y-104587523D01*
X176348571Y-104539142D01*
X176276000Y-104490761D01*
X176203429Y-104393999D01*
X176203429Y-104152095D01*
X176276000Y-104006952D01*
X177727429Y-103571523D02*
X176203429Y-103571523D01*
X176203429Y-103329618D01*
X176276000Y-103184476D01*
X176421143Y-103087714D01*
X176566286Y-103039333D01*
X176856571Y-102990952D01*
X177074286Y-102990952D01*
X177364571Y-103039333D01*
X177509714Y-103087714D01*
X177654857Y-103184476D01*
X177727429Y-103329618D01*
X177727429Y-103571523D01*
D11*
D14*
X131978158Y-91632133D02*
X132133461Y-91714501D01*
X132392299Y-91714501D01*
X132495835Y-91632133D01*
X132547602Y-91549764D01*
X132599370Y-91385027D01*
X132599370Y-91220290D01*
X132547602Y-91055553D01*
X132495835Y-90973184D01*
X132392299Y-90890816D01*
X132185229Y-90808447D01*
X132081694Y-90726079D01*
X132029926Y-90643710D01*
X131978158Y-90478973D01*
X131978158Y-90314236D01*
X132029926Y-90149499D01*
X132081694Y-90067130D01*
X132185229Y-89984761D01*
X132444067Y-89984761D01*
X132599370Y-90067130D01*
X133065278Y-91714501D02*
X133065278Y-89984761D01*
X133479419Y-89984761D01*
X133582954Y-90067130D01*
X133634722Y-90149499D01*
X133686490Y-90314236D01*
X133686490Y-90561341D01*
X133634722Y-90726079D01*
X133582954Y-90808447D01*
X133479419Y-90890816D01*
X133065278Y-90890816D01*
X134721842Y-91714501D02*
X134100630Y-91714501D01*
X134411236Y-91714501D02*
X134411236Y-89984761D01*
X134307701Y-90231867D01*
X134204166Y-90396604D01*
X134100630Y-90478973D01*
D11*
D18*
X133050643Y-90922929D02*
X133068786Y-90928976D01*
X133074834Y-90935024D01*
X133080882Y-90947119D01*
X133080882Y-90965262D01*
X133074834Y-90977357D01*
X133068786Y-90983405D01*
X133056691Y-90989452D01*
X133008310Y-90989452D01*
X133008310Y-90862452D01*
X133050643Y-90862452D01*
X133062739Y-90868500D01*
X133068786Y-90874548D01*
X133074834Y-90886643D01*
X133074834Y-90898738D01*
X133068786Y-90910833D01*
X133062739Y-90916881D01*
X133050643Y-90922929D01*
X133008310Y-90922929D01*
X133135310Y-90862452D02*
X133135310Y-90965262D01*
X133141358Y-90977357D01*
X133147405Y-90983405D01*
X133159501Y-90989452D01*
X133183691Y-90989452D01*
X133195786Y-90983405D01*
X133201834Y-90977357D01*
X133207882Y-90965262D01*
X133207882Y-90862452D01*
X133256263Y-90862452D02*
X133340930Y-90862452D01*
X133256263Y-90989452D01*
X133340930Y-90989452D01*
X133377215Y-90862452D02*
X133461882Y-90862452D01*
X133377215Y-90989452D01*
X133461882Y-90989452D01*
X133510262Y-90922929D02*
X133552595Y-90922929D01*
X133570738Y-90989452D02*
X133510262Y-90989452D01*
X133510262Y-90862452D01*
X133570738Y-90862452D01*
X133697739Y-90989452D02*
X133655405Y-90928976D01*
X133625167Y-90989452D02*
X133625167Y-90862452D01*
X133673548Y-90862452D01*
X133685643Y-90868500D01*
X133691691Y-90874548D01*
X133697739Y-90886643D01*
X133697739Y-90904786D01*
X133691691Y-90916881D01*
X133685643Y-90922929D01*
X133673548Y-90928976D01*
X133625167Y-90928976D01*
D14*
X123534714Y-91634189D02*
X123690017Y-91716800D01*
X123948855Y-91716800D01*
X124052391Y-91634189D01*
X124104158Y-91551579D01*
X124155926Y-91386358D01*
X124155926Y-91221137D01*
X124104158Y-91055916D01*
X124052391Y-90973305D01*
X123948855Y-90890695D01*
X123741785Y-90808084D01*
X123638250Y-90725474D01*
X123586482Y-90642863D01*
X123534714Y-90477642D01*
X123534714Y-90312421D01*
X123586482Y-90147200D01*
X123638250Y-90064590D01*
X123741785Y-89981980D01*
X124000623Y-89981980D01*
X124155926Y-90064590D01*
X124621834Y-89981980D02*
X124621834Y-91386358D01*
X124673602Y-91551579D01*
X124725369Y-91634189D01*
X124828905Y-91716800D01*
X125035975Y-91716800D01*
X125139510Y-91634189D01*
X125191278Y-91551579D01*
X125243046Y-91386358D01*
X125243046Y-89981980D01*
X125760722Y-91716800D02*
X125760722Y-89981980D01*
X126174863Y-89981980D01*
X126278398Y-90064590D01*
X126330166Y-90147200D01*
X126381934Y-90312421D01*
X126381934Y-90560253D01*
X126330166Y-90725474D01*
X126278398Y-90808084D01*
X126174863Y-90890695D01*
X125760722Y-90890695D01*
X127417286Y-91716800D02*
X126796074Y-91716800D01*
X127106680Y-91716800D02*
X127106680Y-89981980D01*
X127003145Y-90229811D01*
X126899610Y-90395032D01*
X126796074Y-90477642D01*
D11*
D15*
X124901477Y-90862452D02*
X124980096Y-90862452D01*
X124937763Y-90910833D01*
X124955905Y-90910833D01*
X124968001Y-90916881D01*
X124974048Y-90922929D01*
X124980096Y-90935024D01*
X124980096Y-90965262D01*
X124974048Y-90977357D01*
X124968001Y-90983405D01*
X124955905Y-90989452D01*
X124919620Y-90989452D01*
X124907524Y-90983405D01*
X124901477Y-90977357D01*
X125034524Y-90977357D02*
X125040572Y-90983405D01*
X125034524Y-90989452D01*
X125028476Y-90983405D01*
X125034524Y-90977357D01*
X125034524Y-90989452D01*
X125082905Y-90862452D02*
X125161524Y-90862452D01*
X125119191Y-90910833D01*
X125137333Y-90910833D01*
X125149429Y-90916881D01*
X125155476Y-90922929D01*
X125161524Y-90935024D01*
X125161524Y-90965262D01*
X125155476Y-90977357D01*
X125149429Y-90983405D01*
X125137333Y-90989452D01*
X125101048Y-90989452D01*
X125088952Y-90983405D01*
X125082905Y-90977357D01*
X125306666Y-90856405D02*
X125197809Y-91019690D01*
X125415524Y-90868500D02*
X125403429Y-90862452D01*
X125385286Y-90862452D01*
X125367143Y-90868500D01*
X125355048Y-90880595D01*
X125349000Y-90892690D01*
X125342952Y-90916881D01*
X125342952Y-90935024D01*
X125349000Y-90959214D01*
X125355048Y-90971310D01*
X125367143Y-90983405D01*
X125385286Y-90989452D01*
X125397381Y-90989452D01*
X125415524Y-90983405D01*
X125421572Y-90977357D01*
X125421572Y-90935024D01*
X125397381Y-90935024D01*
X125476000Y-90989452D02*
X125476000Y-90862452D01*
X125548572Y-90989452D01*
X125548572Y-90862452D01*
X125609048Y-90989452D02*
X125609048Y-90862452D01*
X125639286Y-90862452D01*
X125657429Y-90868500D01*
X125669524Y-90880595D01*
X125675572Y-90892690D01*
X125681620Y-90916881D01*
X125681620Y-90935024D01*
X125675572Y-90959214D01*
X125669524Y-90971310D01*
X125657429Y-90983405D01*
X125639286Y-90989452D01*
X125609048Y-90989452D01*
X125826762Y-90856405D02*
X125717905Y-91019690D01*
X125929572Y-90862452D02*
X125869096Y-90862452D01*
X125863048Y-90922929D01*
X125869096Y-90916881D01*
X125881191Y-90910833D01*
X125911429Y-90910833D01*
X125923525Y-90916881D01*
X125929572Y-90922929D01*
X125935620Y-90935024D01*
X125935620Y-90965262D01*
X125929572Y-90977357D01*
X125923525Y-90983405D01*
X125911429Y-90989452D01*
X125881191Y-90989452D01*
X125869096Y-90983405D01*
X125863048Y-90977357D01*
X125971905Y-90862452D02*
X126014239Y-90989452D01*
X126056572Y-90862452D01*
D20*
X155850167Y-92223166D02*
X155426833Y-92519500D01*
X155850167Y-92731166D02*
X154961167Y-92731166D01*
X154961167Y-92392500D01*
X155003500Y-92307833D01*
X155045833Y-92265500D01*
X155130500Y-92223166D01*
X155257500Y-92223166D01*
X155342167Y-92265500D01*
X155384500Y-92307833D01*
X155426833Y-92392500D01*
X155426833Y-92731166D01*
X155384500Y-91545833D02*
X155384500Y-91842166D01*
X155850167Y-91842166D02*
X154961167Y-91842166D01*
X154961167Y-91418833D01*
X155850167Y-90614500D02*
X155850167Y-91122500D01*
X155850167Y-90868500D02*
X154961167Y-90868500D01*
X155088167Y-90953166D01*
X155172833Y-91037833D01*
X155215167Y-91122500D01*
D11*
D20*
X157374167Y-95144166D02*
X156950833Y-95440500D01*
X157374167Y-95652166D02*
X156485167Y-95652166D01*
X156485167Y-95313500D01*
X156527500Y-95228833D01*
X156569833Y-95186500D01*
X156654500Y-95144166D01*
X156781500Y-95144166D01*
X156866167Y-95186500D01*
X156908500Y-95228833D01*
X156950833Y-95313500D01*
X156950833Y-95652166D01*
X156908500Y-94466833D02*
X156908500Y-94763166D01*
X157374167Y-94763166D02*
X156485167Y-94763166D01*
X156485167Y-94339833D01*
X157374167Y-94001166D02*
X156485167Y-94001166D01*
X157120167Y-93704833D01*
X156485167Y-93408500D01*
X157374167Y-93408500D01*
X156485167Y-92604166D02*
X156485167Y-92773500D01*
X156527500Y-92858166D01*
X156569833Y-92900500D01*
X156696833Y-92985166D01*
X156866167Y-93027500D01*
X157204833Y-93027500D01*
X157289500Y-92985166D01*
X157331833Y-92942833D01*
X157374167Y-92858166D01*
X157374167Y-92688833D01*
X157331833Y-92604166D01*
X157289500Y-92561833D01*
X157204833Y-92519500D01*
X156993167Y-92519500D01*
X156908500Y-92561833D01*
X156866167Y-92604166D01*
X156823833Y-92688833D01*
X156823833Y-92858166D01*
X156866167Y-92942833D01*
X156908500Y-92985166D01*
X156993167Y-93027500D01*
X157374167Y-92096166D02*
X157374167Y-91926833D01*
X157331833Y-91842166D01*
X157289500Y-91799833D01*
X157162500Y-91715166D01*
X156993167Y-91672833D01*
X156654500Y-91672833D01*
X156569833Y-91715166D01*
X156527500Y-91757499D01*
X156485167Y-91842166D01*
X156485167Y-92011499D01*
X156527500Y-92096166D01*
X156569833Y-92138499D01*
X156654500Y-92180833D01*
X156866167Y-92180833D01*
X156950833Y-92138499D01*
X156993167Y-92096166D01*
X157035500Y-92011499D01*
X157035500Y-91842166D01*
X156993167Y-91757499D01*
X156950833Y-91715166D01*
X156866167Y-91672833D01*
X157374167Y-91291832D02*
X156485167Y-91291832D01*
X156908500Y-91291832D02*
X156908500Y-90783832D01*
X157374167Y-90783832D02*
X156485167Y-90783832D01*
X156485167Y-90445166D02*
X157374167Y-90233499D01*
X156739167Y-90064166D01*
X157374167Y-89894833D01*
X156485167Y-89683166D01*
D11*
D19*
X119138095Y-107696000D02*
X119041333Y-107647619D01*
X118896190Y-107647619D01*
X118751048Y-107696000D01*
X118654286Y-107792762D01*
X118605905Y-107889524D01*
X118557524Y-108083048D01*
X118557524Y-108228190D01*
X118605905Y-108421714D01*
X118654286Y-108518476D01*
X118751048Y-108615238D01*
X118896190Y-108663619D01*
X118992952Y-108663619D01*
X119138095Y-108615238D01*
X119186476Y-108566857D01*
X119186476Y-108228190D01*
X118992952Y-108228190D01*
X119621905Y-108663619D02*
X119621905Y-107647619D01*
X120202476Y-108663619D01*
X120202476Y-107647619D01*
X120686286Y-108663619D02*
X120686286Y-107647619D01*
X120928191Y-107647619D01*
X121073333Y-107696000D01*
X121170095Y-107792762D01*
X121218476Y-107889524D01*
X121266857Y-108083048D01*
X121266857Y-108228190D01*
X121218476Y-108421714D01*
X121170095Y-108518476D01*
X121073333Y-108615238D01*
X120928191Y-108663619D01*
X120686286Y-108663619D01*
X122234476Y-108663619D02*
X121653905Y-108663619D01*
X121944191Y-108663619D02*
X121944191Y-107647619D01*
X121847429Y-107792762D01*
X121750667Y-107889524D01*
X121653905Y-107937905D01*
D11*
D18*
X119364881Y-109011357D02*
X119358833Y-109017405D01*
X119340690Y-109023452D01*
X119328595Y-109023452D01*
X119310452Y-109017405D01*
X119298357Y-109005310D01*
X119292309Y-108993214D01*
X119286261Y-108969024D01*
X119286261Y-108950881D01*
X119292309Y-108926690D01*
X119298357Y-108914595D01*
X119310452Y-108902500D01*
X119328595Y-108896452D01*
X119340690Y-108896452D01*
X119358833Y-108902500D01*
X119364881Y-108908548D01*
X119443500Y-108896452D02*
X119467690Y-108896452D01*
X119479785Y-108902500D01*
X119491881Y-108914595D01*
X119497928Y-108938786D01*
X119497928Y-108981119D01*
X119491881Y-109005310D01*
X119479785Y-109017405D01*
X119467690Y-109023452D01*
X119443500Y-109023452D01*
X119431404Y-109017405D01*
X119419309Y-109005310D01*
X119413261Y-108981119D01*
X119413261Y-108938786D01*
X119419309Y-108914595D01*
X119431404Y-108902500D01*
X119443500Y-108896452D01*
X119552357Y-109023452D02*
X119552357Y-108896452D01*
X119624929Y-109023452D01*
X119624929Y-108896452D01*
X119685405Y-109023452D02*
X119685405Y-108896452D01*
X119757977Y-109023452D01*
X119757977Y-108896452D01*
X119788215Y-109035548D02*
X119884977Y-109035548D01*
X119981739Y-109023452D02*
X119909167Y-109023452D01*
X119945453Y-109023452D02*
X119945453Y-108896452D01*
X119933358Y-108914595D01*
X119921263Y-108926690D01*
X119909167Y-108932738D01*
D21*
X149424209Y-119936079D02*
X149424209Y-118145379D01*
X149834480Y-118145379D01*
X149937047Y-118230650D01*
X149988331Y-118315921D01*
X150039615Y-118486464D01*
X150039615Y-118742279D01*
X149988331Y-118912821D01*
X149937047Y-118998093D01*
X149834480Y-119083364D01*
X149424209Y-119083364D01*
X150706304Y-118145379D02*
X150911440Y-118145379D01*
X151014007Y-118230650D01*
X151116575Y-118401193D01*
X151167859Y-118742279D01*
X151167859Y-119339179D01*
X151116575Y-119680264D01*
X151014007Y-119850807D01*
X150911440Y-119936079D01*
X150706304Y-119936079D01*
X150603737Y-119850807D01*
X150501169Y-119680264D01*
X150449885Y-119339179D01*
X150449885Y-118742279D01*
X150501169Y-118401193D01*
X150603737Y-118230650D01*
X150706304Y-118145379D01*
X151475562Y-118145379D02*
X152090967Y-118145379D01*
X151783264Y-119936079D02*
X151783264Y-118145379D01*
X153014076Y-119936079D02*
X152398670Y-119936079D01*
X152706373Y-119936079D02*
X152706373Y-118145379D01*
X152603805Y-118401193D01*
X152501238Y-118571736D01*
X152398670Y-118657007D01*
D11*
D18*
X151006024Y-119425357D02*
X150999976Y-119431405D01*
X150981833Y-119437452D01*
X150969738Y-119437452D01*
X150951595Y-119431405D01*
X150939500Y-119419310D01*
X150933452Y-119407214D01*
X150927404Y-119383024D01*
X150927404Y-119364881D01*
X150933452Y-119340690D01*
X150939500Y-119328595D01*
X150951595Y-119316500D01*
X150969738Y-119310452D01*
X150981833Y-119310452D01*
X150999976Y-119316500D01*
X151006024Y-119322548D01*
X151042309Y-119310452D02*
X151114881Y-119310452D01*
X151078595Y-119437452D02*
X151078595Y-119310452D01*
X151229786Y-119437452D02*
X151187452Y-119376976D01*
X151157214Y-119437452D02*
X151157214Y-119310452D01*
X151205595Y-119310452D01*
X151217690Y-119316500D01*
X151223738Y-119322548D01*
X151229786Y-119334643D01*
X151229786Y-119352786D01*
X151223738Y-119364881D01*
X151217690Y-119370929D01*
X151205595Y-119376976D01*
X151157214Y-119376976D01*
X151344690Y-119437452D02*
X151284214Y-119437452D01*
X151284214Y-119310452D01*
D14*
X166023290Y-104757099D02*
X166023290Y-104239422D01*
X166517501Y-104860634D02*
X164787761Y-104498260D01*
X166517501Y-104135887D01*
X166517501Y-103773514D02*
X164787761Y-103773514D01*
X166517501Y-103152302D01*
X164787761Y-103152302D01*
X164787761Y-102789929D02*
X164787761Y-102168717D01*
X166517501Y-102479323D02*
X164787761Y-102479323D01*
X166517501Y-101236900D02*
X166517501Y-101858112D01*
X166517501Y-101547506D02*
X164787761Y-101547506D01*
X165034867Y-101651041D01*
X165199604Y-101754576D01*
X165281973Y-101858112D01*
D11*
D18*
X160706405Y-103287286D02*
X160712452Y-103269143D01*
X160712452Y-103238905D01*
X160706405Y-103226809D01*
X160700357Y-103220762D01*
X160688262Y-103214714D01*
X160676167Y-103214714D01*
X160664071Y-103220762D01*
X160658024Y-103226809D01*
X160651976Y-103238905D01*
X160645929Y-103263095D01*
X160639881Y-103275190D01*
X160633833Y-103281238D01*
X160621738Y-103287286D01*
X160609643Y-103287286D01*
X160597548Y-103281238D01*
X160591500Y-103275190D01*
X160585452Y-103263095D01*
X160585452Y-103232857D01*
X160591500Y-103214714D01*
X160712452Y-103160286D02*
X160585452Y-103160286D01*
X160676167Y-103117953D01*
X160585452Y-103075619D01*
X160712452Y-103075619D01*
X160676167Y-103021191D02*
X160676167Y-102960714D01*
X160712452Y-103033286D02*
X160585452Y-102990952D01*
X160712452Y-102948619D01*
D19*
X141710833Y-106038952D02*
X141710833Y-105555143D01*
X142001119Y-106135714D02*
X140985119Y-105797047D01*
X142001119Y-105458381D01*
X142001119Y-105119714D02*
X140985119Y-105119714D01*
X142001119Y-104539143D01*
X140985119Y-104539143D01*
X140985119Y-104200476D02*
X140985119Y-103619905D01*
X142001119Y-103910190D02*
X140985119Y-103910190D01*
X141081881Y-103329619D02*
X141033500Y-103281238D01*
X140985119Y-103184476D01*
X140985119Y-102942572D01*
X141033500Y-102845810D01*
X141081881Y-102797429D01*
X141178643Y-102749048D01*
X141275405Y-102749048D01*
X141420548Y-102797429D01*
X142001119Y-103378000D01*
X142001119Y-102749048D01*
D11*
D18*
X143050381Y-107169857D02*
X143044333Y-107175905D01*
X143026190Y-107181952D01*
X143014095Y-107181952D01*
X142995952Y-107175905D01*
X142983857Y-107163810D01*
X142977809Y-107151714D01*
X142971761Y-107127524D01*
X142971761Y-107109381D01*
X142977809Y-107085190D01*
X142983857Y-107073095D01*
X142995952Y-107061000D01*
X143014095Y-107054952D01*
X143026190Y-107054952D01*
X143044333Y-107061000D01*
X143050381Y-107067048D01*
X143129000Y-107054952D02*
X143153190Y-107054952D01*
X143165285Y-107061000D01*
X143177381Y-107073095D01*
X143183428Y-107097286D01*
X143183428Y-107139619D01*
X143177381Y-107163810D01*
X143165285Y-107175905D01*
X143153190Y-107181952D01*
X143129000Y-107181952D01*
X143116904Y-107175905D01*
X143104809Y-107163810D01*
X143098761Y-107139619D01*
X143098761Y-107097286D01*
X143104809Y-107073095D01*
X143116904Y-107061000D01*
X143129000Y-107054952D01*
X143237857Y-107181952D02*
X143237857Y-107054952D01*
X143310429Y-107181952D01*
X143310429Y-107054952D01*
X143370905Y-107181952D02*
X143370905Y-107054952D01*
X143443477Y-107181952D01*
X143443477Y-107054952D01*
X143473715Y-107194048D02*
X143570477Y-107194048D01*
X143667239Y-107181952D02*
X143594667Y-107181952D01*
X143630953Y-107181952D02*
X143630953Y-107054952D01*
X143618858Y-107073095D01*
X143606763Y-107085190D01*
X143594667Y-107091238D01*
D19*
X120725595Y-118872000D02*
X120628833Y-118823619D01*
X120483690Y-118823619D01*
X120338548Y-118872000D01*
X120241786Y-118968762D01*
X120193405Y-119065524D01*
X120145024Y-119259048D01*
X120145024Y-119404190D01*
X120193405Y-119597714D01*
X120241786Y-119694476D01*
X120338548Y-119791238D01*
X120483690Y-119839619D01*
X120580452Y-119839619D01*
X120725595Y-119791238D01*
X120773976Y-119742857D01*
X120773976Y-119404190D01*
X120580452Y-119404190D01*
X121209405Y-119839619D02*
X121209405Y-118823619D01*
X121789976Y-119839619D01*
X121789976Y-118823619D01*
X122273786Y-119839619D02*
X122273786Y-118823619D01*
X122515691Y-118823619D01*
X122660833Y-118872000D01*
X122757595Y-118968762D01*
X122805976Y-119065524D01*
X122854357Y-119259048D01*
X122854357Y-119404190D01*
X122805976Y-119597714D01*
X122757595Y-119694476D01*
X122660833Y-119791238D01*
X122515691Y-119839619D01*
X122273786Y-119839619D01*
X123241405Y-118920381D02*
X123289786Y-118872000D01*
X123386548Y-118823619D01*
X123628452Y-118823619D01*
X123725214Y-118872000D01*
X123773595Y-118920381D01*
X123821976Y-119017143D01*
X123821976Y-119113905D01*
X123773595Y-119259048D01*
X123193024Y-119839619D01*
X123821976Y-119839619D01*
D11*
D18*
X118729881Y-121838357D02*
X118723833Y-121844405D01*
X118705690Y-121850452D01*
X118693595Y-121850452D01*
X118675452Y-121844405D01*
X118663357Y-121832310D01*
X118657309Y-121820214D01*
X118651261Y-121796024D01*
X118651261Y-121777881D01*
X118657309Y-121753690D01*
X118663357Y-121741595D01*
X118675452Y-121729500D01*
X118693595Y-121723452D01*
X118705690Y-121723452D01*
X118723833Y-121729500D01*
X118729881Y-121735548D01*
X118808500Y-121723452D02*
X118832690Y-121723452D01*
X118844785Y-121729500D01*
X118856881Y-121741595D01*
X118862928Y-121765786D01*
X118862928Y-121808119D01*
X118856881Y-121832310D01*
X118844785Y-121844405D01*
X118832690Y-121850452D01*
X118808500Y-121850452D01*
X118796404Y-121844405D01*
X118784309Y-121832310D01*
X118778261Y-121808119D01*
X118778261Y-121765786D01*
X118784309Y-121741595D01*
X118796404Y-121729500D01*
X118808500Y-121723452D01*
X118917357Y-121850452D02*
X118917357Y-121723452D01*
X118989929Y-121850452D01*
X118989929Y-121723452D01*
X119050405Y-121850452D02*
X119050405Y-121723452D01*
X119122977Y-121850452D01*
X119122977Y-121723452D01*
X119153215Y-121862548D02*
X119249977Y-121862548D01*
X119346739Y-121850452D02*
X119274167Y-121850452D01*
X119310453Y-121850452D02*
X119310453Y-121723452D01*
X119298358Y-121741595D01*
X119286263Y-121753690D01*
X119274167Y-121759738D01*
D19*
X118947595Y-95250000D02*
X118850833Y-95201619D01*
X118705690Y-95201619D01*
X118560548Y-95250000D01*
X118463786Y-95346762D01*
X118415405Y-95443524D01*
X118367024Y-95637048D01*
X118367024Y-95782190D01*
X118415405Y-95975714D01*
X118463786Y-96072476D01*
X118560548Y-96169238D01*
X118705690Y-96217619D01*
X118802452Y-96217619D01*
X118947595Y-96169238D01*
X118995976Y-96120857D01*
X118995976Y-95782190D01*
X118802452Y-95782190D01*
X119431405Y-96217619D02*
X119431405Y-95201619D01*
X120011976Y-96217619D01*
X120011976Y-95201619D01*
X120495786Y-96217619D02*
X120495786Y-95201619D01*
X120737691Y-95201619D01*
X120882833Y-95250000D01*
X120979595Y-95346762D01*
X121027976Y-95443524D01*
X121076357Y-95637048D01*
X121076357Y-95782190D01*
X121027976Y-95975714D01*
X120979595Y-96072476D01*
X120882833Y-96169238D01*
X120737691Y-96217619D01*
X120495786Y-96217619D01*
X121415024Y-95201619D02*
X122043976Y-95201619D01*
X121705310Y-95588667D01*
X121850452Y-95588667D01*
X121947214Y-95637048D01*
X121995595Y-95685429D01*
X122043976Y-95782190D01*
X122043976Y-96024095D01*
X121995595Y-96120857D01*
X121947214Y-96169238D01*
X121850452Y-96217619D01*
X121560167Y-96217619D01*
X121463405Y-96169238D01*
X121415024Y-96120857D01*
D11*
D18*
X119301381Y-100375357D02*
X119295333Y-100381405D01*
X119277190Y-100387452D01*
X119265095Y-100387452D01*
X119246952Y-100381405D01*
X119234857Y-100369310D01*
X119228809Y-100357214D01*
X119222761Y-100333024D01*
X119222761Y-100314881D01*
X119228809Y-100290690D01*
X119234857Y-100278595D01*
X119246952Y-100266500D01*
X119265095Y-100260452D01*
X119277190Y-100260452D01*
X119295333Y-100266500D01*
X119301381Y-100272548D01*
X119380000Y-100260452D02*
X119404190Y-100260452D01*
X119416285Y-100266500D01*
X119428381Y-100278595D01*
X119434428Y-100302786D01*
X119434428Y-100345119D01*
X119428381Y-100369310D01*
X119416285Y-100381405D01*
X119404190Y-100387452D01*
X119380000Y-100387452D01*
X119367904Y-100381405D01*
X119355809Y-100369310D01*
X119349761Y-100345119D01*
X119349761Y-100302786D01*
X119355809Y-100278595D01*
X119367904Y-100266500D01*
X119380000Y-100260452D01*
X119488857Y-100387452D02*
X119488857Y-100260452D01*
X119561429Y-100387452D01*
X119561429Y-100260452D01*
X119621905Y-100387452D02*
X119621905Y-100260452D01*
X119694477Y-100387452D01*
X119694477Y-100260452D01*
X119724715Y-100399548D02*
X119821477Y-100399548D01*
X119918239Y-100387452D02*
X119845667Y-100387452D01*
X119881953Y-100387452D02*
X119881953Y-100260452D01*
X119869858Y-100278595D01*
X119857763Y-100290690D01*
X119845667Y-100296738D01*
D19*
X125615095Y-107188000D02*
X125518333Y-107139619D01*
X125373190Y-107139619D01*
X125228048Y-107188000D01*
X125131286Y-107284762D01*
X125082905Y-107381524D01*
X125034524Y-107575048D01*
X125034524Y-107720190D01*
X125082905Y-107913714D01*
X125131286Y-108010476D01*
X125228048Y-108107238D01*
X125373190Y-108155619D01*
X125469952Y-108155619D01*
X125615095Y-108107238D01*
X125663476Y-108058857D01*
X125663476Y-107720190D01*
X125469952Y-107720190D01*
X126098905Y-108155619D02*
X126098905Y-107139619D01*
X126679476Y-108155619D01*
X126679476Y-107139619D01*
X127163286Y-108155619D02*
X127163286Y-107139619D01*
X127405191Y-107139619D01*
X127550333Y-107188000D01*
X127647095Y-107284762D01*
X127695476Y-107381524D01*
X127743857Y-107575048D01*
X127743857Y-107720190D01*
X127695476Y-107913714D01*
X127647095Y-108010476D01*
X127550333Y-108107238D01*
X127405191Y-108155619D01*
X127163286Y-108155619D01*
X128614714Y-107478286D02*
X128614714Y-108155619D01*
X128372810Y-107091238D02*
X128130905Y-107816952D01*
X128759857Y-107816952D01*
D11*
D18*
X126730881Y-108947857D02*
X126724833Y-108953905D01*
X126706690Y-108959952D01*
X126694595Y-108959952D01*
X126676452Y-108953905D01*
X126664357Y-108941810D01*
X126658309Y-108929714D01*
X126652261Y-108905524D01*
X126652261Y-108887381D01*
X126658309Y-108863190D01*
X126664357Y-108851095D01*
X126676452Y-108839000D01*
X126694595Y-108832952D01*
X126706690Y-108832952D01*
X126724833Y-108839000D01*
X126730881Y-108845048D01*
X126809500Y-108832952D02*
X126833690Y-108832952D01*
X126845785Y-108839000D01*
X126857881Y-108851095D01*
X126863928Y-108875286D01*
X126863928Y-108917619D01*
X126857881Y-108941810D01*
X126845785Y-108953905D01*
X126833690Y-108959952D01*
X126809500Y-108959952D01*
X126797404Y-108953905D01*
X126785309Y-108941810D01*
X126779261Y-108917619D01*
X126779261Y-108875286D01*
X126785309Y-108851095D01*
X126797404Y-108839000D01*
X126809500Y-108832952D01*
X126918357Y-108959952D02*
X126918357Y-108832952D01*
X126990929Y-108959952D01*
X126990929Y-108832952D01*
X127051405Y-108959952D02*
X127051405Y-108832952D01*
X127123977Y-108959952D01*
X127123977Y-108832952D01*
X127154215Y-108972048D02*
X127250977Y-108972048D01*
X127347739Y-108959952D02*
X127275167Y-108959952D01*
X127311453Y-108959952D02*
X127311453Y-108832952D01*
X127299358Y-108851095D01*
X127287263Y-108863190D01*
X127275167Y-108869238D01*
%LPC*%
D22*
X137160000Y-108712000D03*
D23*
X137160000Y-106172000D03*
X137160000Y-103632000D03*
X137160000Y-101092000D03*
D22*
X168783000Y-93599000D03*
D23*
X166243000Y-93599000D03*
X163703000Y-93599000D03*
X161163000Y-93599000D03*
D22*
X165100000Y-116713000D03*
D23*
X162560000Y-116713000D03*
X160020000Y-116713000D03*
X157480000Y-116713000D03*
D24*
X124371100Y-112623600D03*
D25*
X126911100Y-112623600D03*
X129451100Y-112623600D03*
X131991100Y-112623600D03*
X134531100Y-112623600D03*
X137071100Y-112623600D03*
X139611100Y-112623600D03*
X142151100Y-112623600D03*
X144691100Y-112623600D03*
X147231100Y-112623600D03*
X149771100Y-112623600D03*
X152311100Y-112623600D03*
X154851100Y-112623600D03*
X157391100Y-112623600D03*
X159931100Y-112623600D03*
X162471100Y-112623600D03*
X165011100Y-112623600D03*
X167551100Y-112623600D03*
X170091100Y-112623600D03*
X172631100Y-112623600D03*
X172631100Y-97383600D03*
X170091100Y-97383600D03*
X167551100Y-97383600D03*
X165011100Y-97383600D03*
X162471100Y-97383600D03*
X159931100Y-97383600D03*
X157391100Y-97383600D03*
X154851100Y-97383600D03*
X152311100Y-97383600D03*
X149771100Y-97383600D03*
X147231100Y-97383600D03*
X144691100Y-97383600D03*
X142151100Y-97383600D03*
X139611100Y-97383600D03*
X137071100Y-97383600D03*
X134531100Y-97383600D03*
X131991100Y-97383600D03*
X129451100Y-97383600D03*
X126911100Y-97383600D03*
X124371100Y-97383600D03*
D26*
X137795000Y-92075000D03*
X137795000Y-94869000D03*
D27*
X121158000Y-117094000D03*
D23*
X123698000Y-117094000D03*
D27*
X144780000Y-116840000D03*
D23*
X142240000Y-116840000D03*
X139700000Y-116840000D03*
X137160000Y-116840000D03*
X134620000Y-116840000D03*
X132080000Y-116840000D03*
D26*
X127000000Y-117221000D03*
X127000000Y-114427000D03*
D27*
X179578000Y-113538000D03*
D23*
X179578000Y-110998000D03*
X179578000Y-108458000D03*
X179578000Y-105918000D03*
X179578000Y-103378000D03*
X179578000Y-100838000D03*
X179578000Y-98298000D03*
D27*
X132080000Y-93472000D03*
D23*
X134620000Y-93472000D03*
D22*
X121666000Y-93472000D03*
D23*
X124206000Y-93472000D03*
X126746000Y-93472000D03*
X129286000Y-93472000D03*
D28*
X155448000Y-91440000D03*
D29*
X153449020Y-91440000D03*
X151450040Y-91440000D03*
X149448520Y-91440000D03*
X147449540Y-91440000D03*
X145448020Y-91440000D03*
X143449040Y-91440000D03*
X141450060Y-91440000D03*
X141450060Y-108889800D03*
X143449040Y-108889800D03*
X145448020Y-108889800D03*
X147449540Y-108889800D03*
X149448520Y-108889800D03*
X151450040Y-108889800D03*
X153449020Y-108889800D03*
X155448000Y-108889800D03*
D30*
X119634000Y-106172000D03*
D27*
X153670000Y-116840000D03*
D23*
X151130000Y-116840000D03*
X148590000Y-116840000D03*
D27*
X163195000Y-104394000D03*
D23*
X163195000Y-101854000D03*
D30*
X143319500Y-104330500D03*
X118999000Y-118999000D03*
X119570500Y-97536000D03*
X127000000Y-106108500D03*
M02*
