G04 #@! TF.FileFunction,Copper,L2,Bot,Signal*
%FSLAX46Y46*%
G04 Gerber Fmt 4.6, Leading zero omitted, Abs format (unit mm)*
G04 Created by KiCad (PCBNEW (2015-01-16 BZR 5376)-product) date 20/06/2015 16:12:35*
%MOMM*%
G01*
G04 APERTURE LIST*
%ADD10C,0.100000*%
%ADD11R,1.600200X1.600200*%
%ADD12C,1.699260*%
%ADD13R,1.397000X2.286000*%
%ADD14O,1.397000X2.286000*%
%ADD15R,1.600200X1.803400*%
%ADD16R,1.803400X1.600200*%
%ADD17R,1.501140X1.501140*%
%ADD18R,1.270000X2.032000*%
%ADD19O,1.270000X2.032000*%
%ADD20C,1.198880*%
%ADD21C,0.609600*%
%ADD22C,0.635000*%
%ADD23C,0.304800*%
%ADD24C,1.270000*%
G04 APERTURE END LIST*
D10*
D11*
X137160000Y-108712000D03*
D12*
X137160000Y-106172000D03*
X137160000Y-103632000D03*
X137160000Y-101092000D03*
D11*
X168783000Y-93599000D03*
D12*
X166243000Y-93599000D03*
X163703000Y-93599000D03*
X161163000Y-93599000D03*
D11*
X165100000Y-116713000D03*
D12*
X162560000Y-116713000D03*
X160020000Y-116713000D03*
X157480000Y-116713000D03*
D13*
X124371100Y-112623600D03*
D14*
X126911100Y-112623600D03*
X129451100Y-112623600D03*
X131991100Y-112623600D03*
X134531100Y-112623600D03*
X137071100Y-112623600D03*
X139611100Y-112623600D03*
X142151100Y-112623600D03*
X144691100Y-112623600D03*
X147231100Y-112623600D03*
X149771100Y-112623600D03*
X152311100Y-112623600D03*
X154851100Y-112623600D03*
X157391100Y-112623600D03*
X159931100Y-112623600D03*
X162471100Y-112623600D03*
X165011100Y-112623600D03*
X167551100Y-112623600D03*
X170091100Y-112623600D03*
X172631100Y-112623600D03*
X172631100Y-97383600D03*
X170091100Y-97383600D03*
X167551100Y-97383600D03*
X165011100Y-97383600D03*
X162471100Y-97383600D03*
X159931100Y-97383600D03*
X157391100Y-97383600D03*
X154851100Y-97383600D03*
X152311100Y-97383600D03*
X149771100Y-97383600D03*
X147231100Y-97383600D03*
X144691100Y-97383600D03*
X142151100Y-97383600D03*
X139611100Y-97383600D03*
X137071100Y-97383600D03*
X134531100Y-97383600D03*
X131991100Y-97383600D03*
X129451100Y-97383600D03*
X126911100Y-97383600D03*
X124371100Y-97383600D03*
D15*
X167513000Y-116586000D03*
X170307000Y-116586000D03*
D16*
X133794500Y-108712000D03*
X133794500Y-105918000D03*
X127000000Y-101092000D03*
X127000000Y-103886000D03*
D17*
X121158000Y-117094000D03*
D12*
X123698000Y-117094000D03*
D17*
X144780000Y-116840000D03*
D12*
X142240000Y-116840000D03*
X139700000Y-116840000D03*
X137160000Y-116840000D03*
X134620000Y-116840000D03*
X132080000Y-116840000D03*
D15*
X130937000Y-103632000D03*
X133731000Y-103632000D03*
X130937000Y-101219000D03*
X133731000Y-101219000D03*
D17*
X179578000Y-113538000D03*
D12*
X179578000Y-110998000D03*
X179578000Y-108458000D03*
X179578000Y-105918000D03*
X179578000Y-103378000D03*
X179578000Y-100838000D03*
X179578000Y-98298000D03*
D17*
X132080000Y-93472000D03*
D12*
X134620000Y-93472000D03*
D11*
X121666000Y-93472000D03*
D12*
X124206000Y-93472000D03*
X126746000Y-93472000D03*
X129286000Y-93472000D03*
D18*
X155448000Y-91440000D03*
D19*
X153449020Y-91440000D03*
X151450040Y-91440000D03*
X149448520Y-91440000D03*
X147449540Y-91440000D03*
X145448020Y-91440000D03*
X143449040Y-91440000D03*
X141450060Y-91440000D03*
X141450060Y-108889800D03*
X143449040Y-108889800D03*
X145448020Y-108889800D03*
X147449540Y-108889800D03*
X149448520Y-108889800D03*
X151450040Y-108889800D03*
X153449020Y-108889800D03*
X155448000Y-108889800D03*
D15*
X162433000Y-108839000D03*
X159639000Y-108839000D03*
X170180000Y-110172500D03*
X167386000Y-110172500D03*
D20*
X119634000Y-106172000D03*
D17*
X153670000Y-116840000D03*
D12*
X151130000Y-116840000D03*
X148590000Y-116840000D03*
D17*
X163195000Y-104394000D03*
D12*
X163195000Y-101854000D03*
D20*
X143319500Y-104330500D03*
D16*
X172593000Y-107378500D03*
X172593000Y-110172500D03*
D20*
X118999000Y-118999000D03*
X119570500Y-97536000D03*
X127000000Y-106108500D03*
D21*
X133794500Y-108712000D02*
X137160000Y-108712000D01*
X132080000Y-116840000D02*
X131635500Y-116840000D01*
X131635500Y-116840000D02*
X129667000Y-114871500D01*
X129667000Y-114871500D02*
X123444000Y-114871500D01*
X123444000Y-114871500D02*
X122682000Y-114109500D01*
X122682000Y-114109500D02*
X122682000Y-110744000D01*
X122682000Y-110744000D02*
X124714000Y-108712000D01*
X124714000Y-108712000D02*
X133794500Y-108712000D01*
X139954000Y-106934000D02*
X139954000Y-99504500D01*
X129451100Y-98717100D02*
X129451100Y-97383600D01*
X129984500Y-99250500D02*
X129451100Y-98717100D01*
X139700000Y-99250500D02*
X129984500Y-99250500D01*
X139954000Y-99504500D02*
X139700000Y-99250500D01*
X137160000Y-108712000D02*
X140081000Y-108712000D01*
X140081000Y-108712000D02*
X139954000Y-108585000D01*
X139954000Y-108585000D02*
X139954000Y-106934000D01*
X139954000Y-106934000D02*
X139954000Y-106807000D01*
D22*
X139954000Y-106807000D02*
X172593000Y-106807000D01*
X172593000Y-106807000D02*
X174244000Y-108458000D01*
X174244000Y-108458000D02*
X179578000Y-108458000D01*
D21*
X129451100Y-97383600D02*
X129451100Y-93637100D01*
X129451100Y-93637100D02*
X129286000Y-93472000D01*
X137160000Y-108712000D02*
X137160000Y-109220000D01*
X129451100Y-97383600D02*
X129438400Y-97383600D01*
X129451100Y-97383600D02*
X129451100Y-97955100D01*
X127000000Y-103886000D02*
X127000000Y-106108500D01*
X172593000Y-110172500D02*
X170180000Y-110172500D01*
X172631100Y-112623600D02*
X172631100Y-110210600D01*
X172631100Y-110210600D02*
X172593000Y-110172500D01*
X162433000Y-108839000D02*
X164401500Y-108839000D01*
X164401500Y-108839000D02*
X165163500Y-108077000D01*
X165163500Y-108077000D02*
X169418000Y-108077000D01*
X169418000Y-108077000D02*
X170180000Y-108839000D01*
X170180000Y-108839000D02*
X170180000Y-110172500D01*
X170091100Y-112623600D02*
X170091100Y-110261400D01*
X170091100Y-110261400D02*
X170180000Y-110172500D01*
X153670000Y-116840000D02*
X153670000Y-119253000D01*
X144780000Y-116840000D02*
X144780000Y-119253000D01*
D22*
X178816000Y-115951000D02*
X178816000Y-119253000D01*
D21*
X172631100Y-112623600D02*
X172631100Y-119253000D01*
X137160000Y-106172000D02*
X126873000Y-106172000D01*
X163068000Y-89662000D02*
X163068000Y-91567000D01*
D22*
X170091100Y-114681000D02*
X175006000Y-114681000D01*
X175006000Y-114681000D02*
X175514000Y-114173000D01*
X182245000Y-117475000D02*
X170091100Y-117475000D01*
X170218100Y-117602000D02*
X170434000Y-117602000D01*
X170091100Y-117475000D02*
X170218100Y-117602000D01*
X170091100Y-115951000D02*
X178816000Y-115951000D01*
X178816000Y-115951000D02*
X181737000Y-115951000D01*
X181737000Y-115951000D02*
X182245000Y-115443000D01*
D21*
X168910000Y-91567000D02*
X163068000Y-91567000D01*
X163068000Y-91567000D02*
X157988000Y-91567000D01*
X157988000Y-91567000D02*
X157988000Y-89662000D01*
D22*
X172847000Y-95504000D02*
X172847000Y-89916000D01*
D21*
X168783000Y-91567000D02*
X168910000Y-91567000D01*
X168910000Y-91567000D02*
X181737000Y-91567000D01*
X181737000Y-91567000D02*
X182245000Y-91059000D01*
D22*
X179324000Y-89916000D02*
X179324000Y-95504000D01*
X176657000Y-95504000D02*
X172847000Y-95504000D01*
X172847000Y-95504000D02*
X168989594Y-95504000D01*
X168783000Y-95297406D02*
X168783000Y-93599000D01*
X168989594Y-95504000D02*
X168783000Y-95297406D01*
X176657000Y-89916000D02*
X176657000Y-95504000D01*
X176657000Y-95504000D02*
X179324000Y-95504000D01*
X179324000Y-95504000D02*
X182245000Y-95504000D01*
D21*
X168783000Y-93599000D02*
X182245000Y-93599000D01*
X175514000Y-112623600D02*
X175514000Y-114173000D01*
X175514000Y-114173000D02*
X175514000Y-119253000D01*
X179578000Y-110998000D02*
X176657000Y-110998000D01*
X175539400Y-112623600D02*
X175514000Y-112623600D01*
X175514000Y-112623600D02*
X170091100Y-112623600D01*
X175641000Y-112522000D02*
X175539400Y-112623600D01*
X175641000Y-112014000D02*
X175641000Y-112522000D01*
X176657000Y-110998000D02*
X175641000Y-112014000D01*
D22*
X182245000Y-110871000D02*
X179705000Y-110871000D01*
X179705000Y-110871000D02*
X179578000Y-110998000D01*
X170307000Y-119253000D02*
X172631100Y-119253000D01*
X172631100Y-119253000D02*
X175514000Y-119253000D01*
X175514000Y-119253000D02*
X178816000Y-119253000D01*
X178816000Y-119253000D02*
X182118000Y-119253000D01*
X182118000Y-119253000D02*
X182245000Y-119126000D01*
X182245000Y-119126000D02*
X182245000Y-117475000D01*
X182245000Y-117475000D02*
X182245000Y-115443000D01*
X182245000Y-115443000D02*
X182245000Y-110871000D01*
X182245000Y-89916000D02*
X179324000Y-89916000D01*
X182245000Y-91059000D02*
X182245000Y-89916000D01*
X179324000Y-89916000D02*
X176657000Y-89916000D01*
X176657000Y-89916000D02*
X172847000Y-89916000D01*
X172847000Y-89916000D02*
X167894000Y-89916000D01*
X182245000Y-93599000D02*
X182245000Y-91059000D01*
X182245000Y-110871000D02*
X182245000Y-95504000D01*
X182245000Y-95504000D02*
X182245000Y-93599000D01*
X165354000Y-119253000D02*
X170307000Y-119253000D01*
X170307000Y-119253000D02*
X170434000Y-119253000D01*
X170434000Y-119253000D02*
X170091100Y-118910100D01*
X170091100Y-118910100D02*
X170091100Y-115951000D01*
X170091100Y-115951000D02*
X170091100Y-114681000D01*
X170091100Y-114681000D02*
X170091100Y-112623600D01*
X130683000Y-119253000D02*
X144780000Y-119253000D01*
X144780000Y-119253000D02*
X150368000Y-119253000D01*
X150368000Y-119253000D02*
X153670000Y-119253000D01*
X153670000Y-119253000D02*
X155321000Y-119253000D01*
X155321000Y-119253000D02*
X165354000Y-119253000D01*
X165354000Y-119253000D02*
X165481000Y-119253000D01*
X165100000Y-118872000D02*
X165100000Y-116713000D01*
X165481000Y-119253000D02*
X165100000Y-118872000D01*
D21*
X118745000Y-97536000D02*
X118745000Y-90043000D01*
X119126000Y-89662000D02*
X157988000Y-89662000D01*
X118745000Y-90043000D02*
X119126000Y-89662000D01*
X157988000Y-89662000D02*
X163068000Y-89662000D01*
X163068000Y-89662000D02*
X167640000Y-89662000D01*
X167640000Y-89662000D02*
X167894000Y-89916000D01*
X168783000Y-90805000D02*
X168783000Y-91567000D01*
X168783000Y-91567000D02*
X168783000Y-93599000D01*
X167894000Y-89916000D02*
X168783000Y-90805000D01*
D22*
X119634000Y-106172000D02*
X119634000Y-119253000D01*
D21*
X118745000Y-106172000D02*
X118745000Y-119380000D01*
X118745000Y-101981000D02*
X121412000Y-101981000D01*
X120015000Y-97536000D02*
X120015000Y-106172000D01*
X121412000Y-97536000D02*
X121412000Y-101981000D01*
X121412000Y-101981000D02*
X121412000Y-105664000D01*
X121412000Y-105664000D02*
X121920000Y-106172000D01*
X118745000Y-97536000D02*
X118745000Y-101981000D01*
X118745000Y-101981000D02*
X118745000Y-106172000D01*
X126746000Y-93472000D02*
X126746000Y-97218500D01*
X126746000Y-97218500D02*
X126911100Y-97383600D01*
X124206000Y-93472000D02*
X126746000Y-93472000D01*
D22*
X126873000Y-106172000D02*
X121920000Y-106172000D01*
X121920000Y-106172000D02*
X120015000Y-106172000D01*
X120015000Y-106172000D02*
X119634000Y-106172000D01*
X119634000Y-106172000D02*
X118745000Y-106172000D01*
D21*
X124206000Y-93472000D02*
X124206000Y-94742000D01*
X121412000Y-97536000D02*
X120015000Y-97536000D01*
X120015000Y-97536000D02*
X118745000Y-97536000D01*
X124206000Y-94742000D02*
X121412000Y-97536000D01*
D22*
X119634000Y-119253000D02*
X130683000Y-119253000D01*
X118872000Y-119253000D02*
X119634000Y-119253000D01*
X118745000Y-119380000D02*
X118872000Y-119253000D01*
D23*
X137160000Y-103632000D02*
X133731000Y-103632000D01*
X137160000Y-101092000D02*
X133858000Y-101092000D01*
X133858000Y-101092000D02*
X133731000Y-101219000D01*
X166243000Y-93599000D02*
X163830000Y-96012000D01*
X157391100Y-99352100D02*
X157391100Y-97383600D01*
X157607000Y-99568000D02*
X157391100Y-99352100D01*
X163957000Y-99568000D02*
X157607000Y-99568000D01*
X163830000Y-99695000D02*
X163957000Y-99568000D01*
X163830000Y-96012000D02*
X163830000Y-99695000D01*
X157391100Y-97383600D02*
X157391100Y-97116900D01*
X163703000Y-93599000D02*
X163576000Y-93599000D01*
X163576000Y-93599000D02*
X161798000Y-95377000D01*
X161798000Y-95377000D02*
X161798000Y-95516700D01*
X161798000Y-95516700D02*
X159931100Y-97383600D01*
X159931100Y-97383600D02*
X159931100Y-97370900D01*
D21*
X167551100Y-112623600D02*
X167551100Y-116547900D01*
X167551100Y-116547900D02*
X167513000Y-116586000D01*
X167551100Y-112623600D02*
X167551100Y-110337600D01*
X167551100Y-110337600D02*
X167386000Y-110172500D01*
X121666000Y-93472000D02*
X121666000Y-91694000D01*
X121920000Y-91440000D02*
X141450060Y-91440000D01*
X121666000Y-91694000D02*
X121920000Y-91440000D01*
X130937000Y-101219000D02*
X124079000Y-101219000D01*
X124371100Y-100926900D02*
X124371100Y-97383600D01*
X124079000Y-101219000D02*
X124371100Y-100926900D01*
X130937000Y-101219000D02*
X130937000Y-103632000D01*
D23*
X162560000Y-116713000D02*
X162560000Y-112712500D01*
X162560000Y-112712500D02*
X162471100Y-112623600D01*
X160020000Y-116713000D02*
X160020000Y-112712500D01*
X160020000Y-112712500D02*
X159931100Y-112623600D01*
X134620000Y-116840000D02*
X134620000Y-112712500D01*
X134620000Y-112712500D02*
X134531100Y-112623600D01*
X137160000Y-112712500D02*
X137071100Y-112623600D01*
X137160000Y-116840000D02*
X137160000Y-112712500D01*
X139700000Y-116840000D02*
X139700000Y-112712500D01*
X139700000Y-112712500D02*
X139611100Y-112623600D01*
X142240000Y-116840000D02*
X142240000Y-112712500D01*
X142240000Y-112712500D02*
X142151100Y-112623600D01*
X144907000Y-112839500D02*
X144691100Y-112623600D01*
X144907000Y-113792000D02*
X144907000Y-112839500D01*
X145415000Y-114300000D02*
X144907000Y-113792000D01*
X153035000Y-114300000D02*
X145415000Y-114300000D01*
X153449020Y-113885980D02*
X153035000Y-114300000D01*
X153449020Y-108889800D02*
X153449020Y-113885980D01*
X147231100Y-112623600D02*
X147231100Y-109108240D01*
X147231100Y-109108240D02*
X147449540Y-108889800D01*
X149448520Y-108889800D02*
X149448520Y-112301020D01*
X149448520Y-112301020D02*
X149771100Y-112623600D01*
X152311100Y-112623600D02*
X152311100Y-111163100D01*
X151450040Y-110302040D02*
X151450040Y-108889800D01*
X152311100Y-111163100D02*
X151450040Y-110302040D01*
X179578000Y-98298000D02*
X173736000Y-98298000D01*
X173736000Y-98298000D02*
X172821600Y-97383600D01*
X172821600Y-97383600D02*
X172631100Y-97383600D01*
X179578000Y-100838000D02*
X174244000Y-100838000D01*
X170180000Y-99314000D02*
X170180000Y-97472500D01*
X171704000Y-100838000D02*
X170180000Y-99314000D01*
X174244000Y-100838000D02*
X171704000Y-100838000D01*
X170180000Y-97472500D02*
X170091100Y-97383600D01*
X167551100Y-97383600D02*
X167551100Y-99987100D01*
X173228000Y-105664000D02*
X179324000Y-105664000D01*
X167551100Y-99987100D02*
X173228000Y-105664000D01*
X179324000Y-105664000D02*
X179578000Y-105918000D01*
X165011100Y-97383600D02*
X165011100Y-96481900D01*
X165011100Y-96481900D02*
X165989000Y-95504000D01*
X172720000Y-103378000D02*
X179578000Y-103378000D01*
X168783000Y-99441000D02*
X172720000Y-103378000D01*
X168783000Y-96393000D02*
X168783000Y-99441000D01*
X167894000Y-95504000D02*
X168783000Y-96393000D01*
X165989000Y-95504000D02*
X167894000Y-95504000D01*
X165011100Y-97383600D02*
X165011100Y-96354900D01*
X165100000Y-97472500D02*
X165011100Y-97383600D01*
X145448020Y-91440000D02*
X145448020Y-94394020D01*
X146812000Y-95758000D02*
X146812000Y-96964500D01*
X145448020Y-94394020D02*
X146812000Y-95758000D01*
X146812000Y-96964500D02*
X147231100Y-97383600D01*
X144691100Y-97383600D02*
X144691100Y-98209100D01*
X144691100Y-98209100D02*
X145796000Y-99314000D01*
X145796000Y-99314000D02*
X147828000Y-99314000D01*
X147828000Y-99314000D02*
X148590000Y-98552000D01*
X148590000Y-98552000D02*
X148590000Y-94996000D01*
X148590000Y-94996000D02*
X149860000Y-93726000D01*
X149860000Y-93726000D02*
X152400000Y-93726000D01*
X152400000Y-93726000D02*
X153449020Y-92676980D01*
X153449020Y-92676980D02*
X153449020Y-91440000D01*
X142151100Y-97383600D02*
X142151100Y-97447100D01*
X142151100Y-97447100D02*
X145034000Y-100330000D01*
X145034000Y-100330000D02*
X149860000Y-100330000D01*
X149860000Y-100330000D02*
X151130000Y-99060000D01*
X151130000Y-99060000D02*
X151130000Y-95504000D01*
X151130000Y-95504000D02*
X151511000Y-95123000D01*
X151511000Y-95123000D02*
X153289000Y-95123000D01*
X153289000Y-95123000D02*
X155448000Y-92964000D01*
X155448000Y-92964000D02*
X155448000Y-91440000D01*
X134531100Y-97383600D02*
X134531100Y-93560900D01*
X134531100Y-93560900D02*
X134620000Y-93472000D01*
X131991100Y-97383600D02*
X131991100Y-93560900D01*
X131991100Y-93560900D02*
X132080000Y-93472000D01*
X154851100Y-112623600D02*
X154851100Y-112229900D01*
X154851100Y-112229900D02*
X158242000Y-108839000D01*
X158242000Y-108839000D02*
X159639000Y-108839000D01*
X151130000Y-116840000D02*
X151130000Y-115443000D01*
X154813000Y-114046000D02*
X154813000Y-112661700D01*
X153924000Y-114935000D02*
X154813000Y-114046000D01*
X151638000Y-114935000D02*
X153924000Y-114935000D01*
X151130000Y-115443000D02*
X151638000Y-114935000D01*
X154813000Y-112661700D02*
X154851100Y-112623600D01*
X151066500Y-116840000D02*
X151193500Y-116840000D01*
D24*
X163195000Y-104394000D02*
X143637000Y-104394000D01*
X143637000Y-104394000D02*
X143510000Y-104267000D01*
M02*
