M48
;DRILL file {kicad (2015-01-16 BZR 5376)-product} date 20/06/2015 16:13:12
;FORMAT={-:-/ absolute / inch / decimal}
FMAT,2
INCH,TZ
T1C0.024
T2C0.030
T3C0.032
%
G90
G05
M72
T1
X4.685Y-4.685
X4.7075Y-3.84
X4.71Y-4.18
X5.Y-4.1775
X5.6425Y-4.1075
T2
X5.5689Y-3.6
X5.5689Y-4.287
X5.6476Y-3.6
X5.6476Y-4.287
X5.7263Y-3.6
X5.7263Y-4.287
X5.8051Y-3.6
X5.8051Y-4.287
X5.8838Y-3.6
X5.8838Y-4.287
X5.9626Y-3.6
X5.9626Y-4.287
X6.0413Y-3.6
X6.0413Y-4.287
X6.12Y-3.6
X6.12Y-4.287
T3
X4.77Y-4.61
X4.79Y-3.68
X4.87Y-4.61
X4.89Y-3.68
X4.8965Y-3.834
X4.8965Y-4.434
X4.99Y-3.68
X4.9965Y-3.834
X4.9965Y-4.434
X5.09Y-3.68
X5.0965Y-3.834
X5.0965Y-4.434
X5.1965Y-3.834
X5.1965Y-4.434
X5.2Y-3.68
X5.2Y-4.6
X5.2965Y-3.834
X5.2965Y-4.434
X5.3Y-3.68
X5.3Y-4.6
X5.3965Y-3.834
X5.3965Y-4.434
X5.4Y-3.98
X5.4Y-4.08
X5.4Y-4.18
X5.4Y-4.28
X5.4Y-4.6
X5.4965Y-3.834
X5.4965Y-4.434
X5.5Y-4.6
X5.5965Y-3.834
X5.5965Y-4.434
X5.6Y-4.6
X5.6965Y-3.834
X5.6965Y-4.434
X5.7Y-4.6
X5.7965Y-3.834
X5.7965Y-4.434
X5.85Y-4.6
X5.8965Y-3.834
X5.8965Y-4.434
X5.95Y-4.6
X5.9965Y-3.834
X5.9965Y-4.434
X6.05Y-4.6
X6.0965Y-3.834
X6.0965Y-4.434
X6.1965Y-3.834
X6.1965Y-4.434
X6.2Y-4.595
X6.2965Y-3.834
X6.2965Y-4.434
X6.3Y-4.595
X6.345Y-3.685
X6.3965Y-3.834
X6.3965Y-4.434
X6.4Y-4.595
X6.425Y-4.01
X6.425Y-4.11
X6.445Y-3.685
X6.4965Y-3.834
X6.4965Y-4.434
X6.5Y-4.595
X6.545Y-3.685
X6.5965Y-3.834
X6.5965Y-4.434
X6.645Y-3.685
X6.6965Y-3.834
X6.6965Y-4.434
X6.7965Y-3.834
X6.7965Y-4.434
X7.07Y-3.87
X7.07Y-3.97
X7.07Y-4.07
X7.07Y-4.17
X7.07Y-4.27
X7.07Y-4.37
X7.07Y-4.47
T0
M30
