G04 #@! TF.FileFunction,Soldermask,Top*
%FSLAX46Y46*%
G04 Gerber Fmt 4.6, Leading zero omitted, Abs format (unit mm)*
G04 Created by KiCad (PCBNEW (2015-01-16 BZR 5376)-product) date 20/06/2015 16:12:35*
%MOMM*%
G01*
G04 APERTURE LIST*
%ADD10C,0.100000*%
%ADD11R,1.800200X1.800200*%
%ADD12C,1.899260*%
%ADD13R,1.597000X2.486000*%
%ADD14O,1.597000X2.486000*%
%ADD15R,2.003400X1.800200*%
%ADD16R,1.701140X1.701140*%
%ADD17R,1.470000X2.232000*%
%ADD18O,1.470000X2.232000*%
%ADD19C,1.398880*%
G04 APERTURE END LIST*
D10*
D11*
X137160000Y-108712000D03*
D12*
X137160000Y-106172000D03*
X137160000Y-103632000D03*
X137160000Y-101092000D03*
D11*
X168783000Y-93599000D03*
D12*
X166243000Y-93599000D03*
X163703000Y-93599000D03*
X161163000Y-93599000D03*
D11*
X165100000Y-116713000D03*
D12*
X162560000Y-116713000D03*
X160020000Y-116713000D03*
X157480000Y-116713000D03*
D13*
X124371100Y-112623600D03*
D14*
X126911100Y-112623600D03*
X129451100Y-112623600D03*
X131991100Y-112623600D03*
X134531100Y-112623600D03*
X137071100Y-112623600D03*
X139611100Y-112623600D03*
X142151100Y-112623600D03*
X144691100Y-112623600D03*
X147231100Y-112623600D03*
X149771100Y-112623600D03*
X152311100Y-112623600D03*
X154851100Y-112623600D03*
X157391100Y-112623600D03*
X159931100Y-112623600D03*
X162471100Y-112623600D03*
X165011100Y-112623600D03*
X167551100Y-112623600D03*
X170091100Y-112623600D03*
X172631100Y-112623600D03*
X172631100Y-97383600D03*
X170091100Y-97383600D03*
X167551100Y-97383600D03*
X165011100Y-97383600D03*
X162471100Y-97383600D03*
X159931100Y-97383600D03*
X157391100Y-97383600D03*
X154851100Y-97383600D03*
X152311100Y-97383600D03*
X149771100Y-97383600D03*
X147231100Y-97383600D03*
X144691100Y-97383600D03*
X142151100Y-97383600D03*
X139611100Y-97383600D03*
X137071100Y-97383600D03*
X134531100Y-97383600D03*
X131991100Y-97383600D03*
X129451100Y-97383600D03*
X126911100Y-97383600D03*
X124371100Y-97383600D03*
D15*
X137795000Y-92075000D03*
X137795000Y-94869000D03*
D16*
X121158000Y-117094000D03*
D12*
X123698000Y-117094000D03*
D16*
X144780000Y-116840000D03*
D12*
X142240000Y-116840000D03*
X139700000Y-116840000D03*
X137160000Y-116840000D03*
X134620000Y-116840000D03*
X132080000Y-116840000D03*
D15*
X127000000Y-117221000D03*
X127000000Y-114427000D03*
D16*
X179578000Y-113538000D03*
D12*
X179578000Y-110998000D03*
X179578000Y-108458000D03*
X179578000Y-105918000D03*
X179578000Y-103378000D03*
X179578000Y-100838000D03*
X179578000Y-98298000D03*
D16*
X132080000Y-93472000D03*
D12*
X134620000Y-93472000D03*
D11*
X121666000Y-93472000D03*
D12*
X124206000Y-93472000D03*
X126746000Y-93472000D03*
X129286000Y-93472000D03*
D17*
X155448000Y-91440000D03*
D18*
X153449020Y-91440000D03*
X151450040Y-91440000D03*
X149448520Y-91440000D03*
X147449540Y-91440000D03*
X145448020Y-91440000D03*
X143449040Y-91440000D03*
X141450060Y-91440000D03*
X141450060Y-108889800D03*
X143449040Y-108889800D03*
X145448020Y-108889800D03*
X147449540Y-108889800D03*
X149448520Y-108889800D03*
X151450040Y-108889800D03*
X153449020Y-108889800D03*
X155448000Y-108889800D03*
D19*
X119634000Y-106172000D03*
D16*
X153670000Y-116840000D03*
D12*
X151130000Y-116840000D03*
X148590000Y-116840000D03*
D16*
X163195000Y-104394000D03*
D12*
X163195000Y-101854000D03*
D19*
X143319500Y-104330500D03*
X118999000Y-118999000D03*
X119570500Y-97536000D03*
X127000000Y-106108500D03*
M02*
